<svg width="64" height="64" viewBox="0 0 64 64" fill="none" xmlns="http://www.w3.org/2000/svg">
<path fill-rule="evenodd" clip-rule="evenodd" d="M2.96848 27.7423C1.26509 30.2238 1.8659 33.5979 4.32091 35.3536C4.67428 35.5701 4.95232 35.8887 5.11714 36.2671C6.75468 37.0382 8.4369 37.7093 10.1545 38.2763C11.3819 38.6423 11.5044 39.3114 10.708 40.2247C9.90939 41.1383 9.97068 40.8341 9.66191 41.199C7.43084 43.264 7.30826 46.731 9.39106 48.9454C9.64083 49.2104 9.91649 49.4516 10.2156 49.663C11.8979 50.7867 13.8038 51.5341 15.804 51.8557C18.5042 52.4444 21.2725 52.6702 24.0337 52.5248C25.9915 52.2443 27.9799 52.7486 29.5609 53.9259C30.1617 54.4341 30.8779 54.7898 31.6483 54.9609C31.4881 54.3475 31.1464 53.796 30.6658 53.3774C30.237 52.7083 30.2983 52.1598 31.1582 51.9166C32.996 51.4227 34.8619 51.0362 36.7466 50.7589C37.6914 50.6536 38.542 51.3268 38.648 52.2619C38.6504 52.2682 38.6504 52.2753 38.6504 52.2815C39.0202 53.499 39.3878 54.7176 39.8778 55.8743C40.3698 57.0309 40.863 57.3351 42.1512 56.6052C47.0658 53.9908 50.8119 49.6454 52.6526 44.4268C52.8118 43.8094 53.1302 43.2433 53.5735 42.7825C55.7077 41.0134 57.5879 38.965 59.1644 36.6938C59.4163 36.4103 59.642 36.1052 59.8377 35.7804L60.8813 32.6743V31.0918C61.0396 30.5134 61.0396 29.9042 60.8813 29.3258L60.3913 30.9701C60.1114 31.6991 59.9063 32.4537 59.7763 33.2228C58.8033 35.3969 57.357 37.331 55.5402 38.8856C54.8649 39.6773 54.0656 39.3733 54.0656 38.3371C54.0656 36.3887 53.6984 34.4402 53.5121 32.2485C53.5808 31.3258 54.1438 30.5114 54.9866 30.1176C56.7347 28.8804 58.1156 27.1969 58.9782 25.2464C59.4495 23.4495 59.4495 21.5629 58.9782 19.7661C58.3653 21.0444 58.4881 22.2021 57.9959 23.1145C56.9804 24.7929 55.6702 26.2774 54.127 27.4991C53.7639 27.9433 53.1073 28.0124 52.6588 27.6527C52.4591 27.4918 52.3248 27.2639 52.2843 27.0114C51.6578 25.0577 50.814 23.1784 49.7661 21.4103C49.431 20.8639 49.6058 20.1526 50.1573 19.8196C50.1896 19.8001 50.2229 19.7825 50.2583 19.7661C51.0033 19.1691 51.7005 18.5186 52.3457 17.8176C53.7056 16.7021 53.894 14.7062 52.7702 13.3588C52.5298 13.0723 52.2427 12.8289 51.9169 12.6413C49.8275 11.0928 47.4123 10.0309 44.8536 9.53613C42.9952 9.03407 41.0628 8.84951 39.1428 8.98872C40.6154 10.3887 42.0898 11.7279 43.6268 13.3722C43.3437 12.6783 43.4592 11.8866 43.9327 11.3021C44.5196 11.0443 45.1887 11.0443 45.7745 11.3021C47.2635 11.4764 48.7266 11.8237 50.1355 12.3371C51.0522 12.7475 51.8535 13.3743 52.4684 14.1639C53.0522 14.8949 53.0522 15.9289 52.4684 16.6609C51.6745 17.8495 50.5101 18.7485 49.1532 19.2176C48.1896 19.2629 47.2687 18.8289 46.6964 18.0608C46.9836 18.6577 46.9836 19.3516 46.6964 19.9485C46.2012 20.3671 45.6101 20.6599 44.9764 20.801C42.6414 21.4712 40.1867 21.8969 37.7904 22.3237C35.3967 22.7495 35.0268 22.3237 34.6592 20.0093C34.0443 16.4774 33.0006 13.068 32.1407 9.59696C32.0017 9.09491 31.8155 8.6052 31.587 8.13616C30.9745 6.73508 30.6658 6.67425 29.4996 7.70931C25.7889 10.9671 22.7613 14.9196 20.5938 19.3392C19.4889 21.6537 19.1214 21.7752 16.8478 20.5578L16.174 20.1918C14.0725 19.3299 13.0758 16.9433 13.9452 14.8619C14.162 14.3474 14.4799 13.8815 14.8829 13.4939C16.8336 11.0969 19.4017 9.26702 22.3137 8.19689H21.3925L19.6727 8.80513C18.4452 9.41446 17.2789 9.96295 15.9878 10.4495L14.6379 11.2412C12.8119 12.2114 11.1886 13.5124 9.84809 15.0773C7.90907 16.4959 7.42377 19.167 8.74086 21.166C9.0989 21.6145 9.0234 22.265 8.57107 22.6207C8.4581 22.7093 8.3284 22.7743 8.18943 22.8103C6.16801 23.6361 4.37981 24.931 2.96848 26.5856C3.07452 26.964 3.07452 27.364 2.96848 27.7423ZM48.661 48.0197C46.9909 51.1299 44.7151 53.8826 41.9681 56.1176C41.7766 56.4454 41.4281 56.6537 41.0462 56.666C40.4926 56.666 41.0462 55.9352 40.7382 55.5692C40.4312 55.2042 40.7382 53.134 40.7382 51.7939C40.4146 50.9444 40.8484 49.9959 41.7059 49.6764C41.7912 49.6443 41.8776 49.6197 41.9681 49.6021C44.1231 49.0032 46.1876 48.1227 48.1074 46.9835C48.1074 46.9835 48.9055 46.3753 49.2759 46.9846C49.6433 47.5928 48.8452 47.7145 48.661 48.0805V48.0197ZM51.2405 34.8062C51.2405 36.8155 51.2405 38.8856 50.8711 40.8949C50.7692 41.6289 50.3103 42.2661 49.6433 42.6C46.915 43.9763 44.0804 45.1362 41.1689 46.0701C40.3698 46.0701 40.0024 46.0701 39.8778 45.3403C39.8778 43.2094 39.3265 41.0774 38.9566 39.2505C38.7799 38.6021 39.1639 37.932 39.8189 37.7546C39.859 37.7444 39.8991 37.7351 39.9415 37.7289C43.4373 36.9629 46.8234 35.7557 50.0138 34.1361C50.996 33.2228 51.3633 33.7093 51.2405 34.8062ZM37.9129 25.0629C41.2303 24.5722 44.4551 23.6083 47.4946 22.2021C47.8816 21.9299 48.4186 22.0217 48.6912 22.4062C48.7786 22.5258 48.8306 22.6649 48.8451 22.8103C49.4601 24.8196 50.0752 26.8289 50.6256 28.899C50.7182 29.3639 50.4591 29.8268 50.0138 29.9959C46.5081 31.5227 42.8703 32.7258 39.1428 33.5877C38.5703 33.6557 38.0495 33.2506 37.9812 32.6836C37.9789 32.6599 37.9766 32.6371 37.9742 32.6134C37.6067 30.5433 37.2392 28.4733 36.8079 26.5248C36.6241 25.4289 37.1779 25.2464 37.9129 25.0629ZM34.9042 39.4949C35.4579 41.8083 36.0705 44.0608 36.6241 46.3145C36.6241 47.0443 36.193 47.1671 35.6417 47.2888C33.0832 47.7939 30.5008 48.1598 27.9023 48.3846C26.9034 48.464 25.9632 47.9 25.5697 46.9846C24.4106 45.0692 23.4823 43.0248 22.8061 40.8949C22.4975 40.0424 22.8061 39.9207 23.6048 39.8599C26.9268 39.7042 30.2323 39.297 33.493 38.6423C33.917 38.366 34.4897 38.4856 34.7676 38.9073C34.8925 39.099 34.942 39.33 34.9042 39.5558V39.4949ZM23.5435 20.801C25.3436 16.6814 27.5442 12.7464 30.1145 9.04955C30.2299 8.68454 30.5904 8.45365 30.9745 8.50106C31.4032 8.50106 31.342 8.9268 31.2808 9.29279C31.1958 12.9568 31.4009 16.6217 31.8956 20.2526C31.8956 22.6888 32.2019 22.6888 29.0095 22.6279L24.2786 22.1403C23.5435 22.0186 23.1737 21.5929 23.5435 20.801ZM21.8849 26.8897C21.892 26.2516 22.4221 25.7392 23.0653 25.7475C23.2303 25.7496 23.3927 25.7856 23.5435 25.8547H29.6833C32.3245 25.8547 32.3245 25.8547 32.7556 28.2908C32.9559 30.0125 33.2645 31.7207 33.6768 33.4052C33.917 33.8495 33.7499 34.4032 33.3021 34.6423C33.135 34.7321 32.9441 34.767 32.7556 34.7454C29.3818 35.0156 25.9938 35.0156 22.6224 34.7454C22.0451 34.7795 21.5503 34.3454 21.5151 33.7743C21.5127 33.733 21.5127 33.6908 21.5151 33.6496C21.3595 31.4124 21.4631 29.165 21.8237 26.9506L21.8849 26.8897ZM20.0425 43.8784C20.33 44.997 20.9001 46.0248 21.7011 46.8619C22.0687 47.2888 22.375 47.7753 21.7011 47.9578C18.1672 47.8433 14.8547 46.2227 12.6117 43.5134C12.2112 42.8764 12.018 42.132 12.058 41.3826C12.058 39.433 12.058 39.433 14.0842 39.433C16.9562 39.1083 19.5666 41.1042 19.9812 43.9393L20.0425 43.8784ZM10.4606 23.8454C10.6068 23.3619 11.1204 23.0867 11.608 23.23C11.7022 23.2588 11.7917 23.3021 11.8743 23.3588C13.5518 24.1537 15.3282 24.7268 17.1564 25.0629C18.0164 25.0629 18.384 25.5506 18.1389 26.464C17.6277 28.4516 17.4392 30.5073 17.5852 32.5526C17.5852 33.3444 17.5852 33.9536 16.4802 33.6496C14.136 33.0742 12.0062 31.8486 10.3381 30.1176C9.65722 29.4216 9.32026 28.464 9.41695 27.4991C9.36276 26.2021 9.73031 24.9217 10.4606 23.8454Z" fill="#E99415"/>
</svg>
