<svg width="649" height="650" xmlns="http://www.w3.org/2000/svg" xmlns:xlink="http://www.w3.org/1999/xlink" xml:space="preserve" overflow="hidden"><defs><clipPath id="clip0"><rect x="1522" y="1488" width="649" height="650"/></clipPath></defs><g clip-path="url(#clip0)" transform="translate(-1522 -1488)"><path d="M1589.72 1774.34C1574.39 1796.87 1579.79 1827.51 1601.89 1843.45 1605.07 1845.41 1607.57 1848.31 1609.05 1851.75 1623.79 1858.75 1638.93 1864.84 1654.39 1869.99 1665.44 1873.31 1666.54 1879.39 1659.37 1887.68 1652.18 1895.98 1652.74 1893.21 1649.96 1896.53 1629.88 1915.27 1628.77 1946.76 1647.52 1966.86 1649.77 1969.27 1652.25 1971.46 1654.94 1973.38 1670.08 1983.58 1687.23 1990.37 1705.24 1993.29 1729.54 1998.64 1754.45 2000.69 1779.3 1999.37 1796.92 1996.82 1814.82 2001.39 1829.05 2012.08 1834.45 2016.7 1840.9 2019.93 1847.83 2021.48 1846.39 2015.91 1843.32 2010.91 1838.99 2007.11 1835.13 2001.03 1835.68 1996.05 1843.42 1993.84 1859.96 1989.36 1876.76 1985.85 1893.72 1983.33 1902.22 1982.38 1909.88 1988.48 1910.83 1996.98 1910.85 1997.04 1910.85 1997.1 1910.85 1997.16 1914.18 2008.21 1917.49 2019.27 1921.9 2029.78 1926.33 2040.28 1930.76 2043.05 1942.36 2036.41 1986.59 2012.67 2020.31 1973.22 2036.87 1925.83 2038.31 1920.23 2041.17 1915.09 2045.16 1910.91 2064.37 1894.84 2081.29 1876.24 2095.48 1855.62 2097.75 1853.05 2099.78 1850.27 2101.54 1847.32L2110.94 1819.13 2110.94 1804.75C2112.36 1799.5 2112.36 1793.97 2110.94 1788.72L2106.52 1803.64C2104 1810.26 2102.16 1817.12 2100.99 1824.1 2092.23 1843.84 2079.21 1861.4 2062.86 1875.52 2056.78 1882.71 2049.59 1879.94 2049.59 1870.54 2049.59 1852.85 2046.28 1835.16 2044.61 1815.26 2045.22 1806.88 2050.29 1799.48 2057.88 1795.91 2073.62 1784.67 2086.04 1769.39 2093.8 1751.67 2098.04 1735.36 2098.04 1718.23 2093.8 1701.91 2088.29 1713.53 2089.39 1724.03 2084.96 1732.32 2075.82 1747.56 2064.03 1761.04 2050.14 1772.13 2046.88 1776.16 2040.96 1776.79 2036.93 1773.52 2035.13 1772.07 2033.92 1769.99 2033.56 1767.71 2027.92 1749.96 2020.33 1732.9 2010.89 1716.84 2007.88 1711.89 2009.45 1705.42 2014.41 1702.41 2014.71 1702.23 2015.01 1702.06 2015.33 1701.91 2022.03 1696.5 2028.3 1690.58 2034.11 1684.22 2046.35 1674.1 2048.04 1655.97 2037.93 1643.74 2035.77 1641.13 2033.18 1638.93 2030.25 1637.23 2011.45 1623.16 1989.71 1613.52 1966.68 1609.03 1949.95 1604.47 1932.57 1602.79 1915.28 1604.05 1928.54 1616.77 1941.81 1628.93 1955.64 1643.86 1953.09 1637.56 1954.13 1630.37 1958.39 1625.06 1963.67 1622.72 1969.69 1622.72 1974.97 1625.06 1988.38 1626.64 2001.54 1629.8 2014.22 1634.46 2022.47 1638.19 2029.68 1643.88 2035.21 1651.05 2040.47 1657.69 2040.47 1667.08 2035.21 1673.72 2028.07 1684.52 2017.59 1692.67 2005.38 1696.94 1996.71 1697.35 1988.42 1693.4 1983.26 1686.43 1985.85 1691.85 1985.85 1698.15 1983.26 1703.57 1978.81 1707.38 1973.49 1710.03 1967.79 1711.31 1946.77 1717.39 1924.68 1721.26 1903.11 1725.14 1881.57 1729.01 1878.24 1725.14 1874.93 1704.12 1869.4 1672.06 1860.01 1641.1 1852.27 1609.58 1851.01 1605.02 1849.34 1600.58 1847.28 1596.31 1841.77 1583.6 1838.99 1583.04 1828.5 1592.44 1795.1 1622.02 1767.85 1657.91 1748.34 1698.04 1738.4 1719.05 1735.09 1720.16 1714.63 1709.1L1708.57 1705.78C1689.65 1697.95 1680.68 1676.29 1688.51 1657.38 1690.46 1652.71 1693.32 1648.49 1696.95 1644.97 1714.5 1623.2 1737.62 1606.58 1763.82 1596.86L1763.82 1596.86 1755.53 1596.86 1740.05 1602.39C1729.01 1607.92 1718.51 1612.9 1706.89 1617.32L1694.74 1624.51C1678.31 1633.31 1663.7 1645.13 1651.63 1659.34 1634.18 1672.22 1629.81 1696.48 1641.67 1714.63 1644.89 1718.7 1644.21 1724.61 1640.14 1727.84 1639.12 1728.64 1637.96 1729.23 1636.7 1729.56 1618.51 1737.05 1602.42 1748.81 1589.72 1763.84 1590.67 1767.28 1590.67 1770.9 1589.72 1774.34ZM2000.95 1958.45C1985.92 1986.7 1965.43 2011.69 1940.71 2031.99 1938.99 2034.97 1935.85 2036.85 1932.42 2036.96 1927.43 2036.96 1932.42 2030.33 1929.64 2027.01 1926.88 2023.69 1929.64 2004.9 1929.64 1992.73 1926.73 1985.02 1930.64 1976.41 1938.35 1973.5 1939.12 1973.21 1939.9 1972.99 1940.71 1972.83 1960.11 1967.39 1978.68 1959.4 1995.97 1949.05 1995.97 1949.06 2003.15 1943.53 2006.48 1949.06 2009.79 1954.58 2002.6 1955.69 2000.95 1959.01ZM2024.17 1838.48C2024.17 1856.72 2024.17 1875.52 2020.84 1893.77 2019.93 1900.43 2015.79 1906.22 2009.79 1909.25 1985.24 1921.74 1959.73 1932.28 1933.52 1940.76 1926.33 1940.76 1923.02 1940.76 1921.9 1934.13 1921.9 1914.78 1916.94 1895.42 1913.61 1878.84 1912.02 1872.95 1915.48 1866.87 1921.37 1865.26 1921.73 1865.16 1922.09 1865.08 1922.47 1865.02 1953.94 1858.06 1984.41 1847.1 2013.12 1832.4 2021.96 1824.1 2025.27 1828.52 2024.17 1838.48ZM1904.22 1750.02C1934.07 1745.56 1963.1 1736.81 1990.45 1724.03 1993.93 1721.56 1998.77 1722.4 2001.22 1725.89 2002.01 1726.97 2002.48 1728.24 2002.6 1729.56 2008.14 1747.8 2013.67 1766.05 2018.63 1784.85 2019.46 1789.07 2017.13 1793.27 2013.12 1794.8 1981.57 1808.67 1948.83 1819.59 1915.28 1827.42 1910.13 1828.04 1905.45 1824.36 1904.83 1819.2 1904.81 1818.99 1904.79 1818.79 1904.77 1818.57 1901.46 1799.77 1898.15 1780.98 1894.27 1763.28 1892.62 1753.33 1897.6 1751.67 1904.22 1750.02ZM1877.14 1881.05C1882.12 1902.06 1887.63 1922.52 1892.62 1942.97 1892.62 1949.61 1888.74 1950.71 1883.78 1951.82 1860.75 1956.41 1837.51 1959.73 1814.12 1961.77 1805.13 1962.49 1796.67 1957.37 1793.13 1949.06 1782.69 1931.67 1774.34 1913.11 1768.26 1893.77 1765.48 1886.03 1768.26 1884.92 1775.44 1884.37 1805.34 1882.96 1835.09 1879.26 1864.44 1873.31 1868.25 1870.81 1873.41 1871.88 1875.91 1875.72 1877.03 1877.46 1877.48 1879.56 1877.14 1881.6ZM1774.89 1711.31C1791.09 1673.91 1810.9 1638.17 1834.03 1604.61 1835.07 1601.3 1838.31 1599.2 1841.77 1599.63 1845.63 1599.63 1845.08 1603.5 1844.53 1606.82 1843.76 1640.08 1845.61 1673.36 1850.06 1706.34 1850.06 1728.45 1852.82 1728.45 1824.09 1727.9L1781.51 1723.48C1774.89 1722.37 1771.56 1718.5 1774.89 1711.31ZM1759.96 1766.6C1760.03 1760.8 1764.8 1756.16 1770.59 1756.23 1772.07 1756.24 1773.53 1756.58 1774.89 1757.2L1830.15 1757.2C1853.92 1757.2 1853.92 1757.2 1857.8 1779.32 1859.6 1794.95 1862.38 1810.46 1866.09 1825.76 1868.25 1829.8 1866.75 1834.82 1862.72 1836.99 1861.21 1837.8 1859.5 1838.13 1857.8 1837.93 1827.44 1840.38 1796.94 1840.38 1766.6 1837.93 1761.41 1838.24 1756.95 1834.29 1756.64 1829.11 1756.61 1828.73 1756.61 1828.35 1756.64 1827.97 1755.24 1807.66 1756.17 1787.26 1759.41 1767.15ZM1743.38 1920.86C1745.97 1931.01 1751.1 1940.34 1758.31 1947.95 1761.62 1951.82 1764.37 1956.24 1758.31 1957.9 1726.5 1956.85 1696.69 1942.14 1676.5 1917.54 1672.9 1911.75 1671.16 1905 1671.52 1898.19 1671.52 1880.5 1671.52 1880.5 1689.76 1880.5 1715.61 1877.54 1739.1 1895.66 1742.83 1921.41ZM1657.15 1738.96C1658.46 1734.57 1663.08 1732.07 1667.47 1733.37 1668.32 1733.63 1669.13 1734.02 1669.87 1734.53 1684.97 1741.76 1700.95 1746.96 1717.41 1750.02 1725.15 1750.02 1728.46 1754.44 1726.25 1762.73 1721.65 1780.78 1719.95 1799.44 1721.27 1818.02 1721.27 1825.21 1721.27 1830.74 1711.32 1827.97 1690.22 1822.75 1671.06 1811.63 1656.04 1795.91 1649.91 1789.59 1646.88 1780.89 1647.75 1772.13 1647.26 1760.35 1650.57 1748.73 1657.15 1738.96Z" fill="#404040" fill-rule="evenodd"/></g></svg>