<svg width="650" height="650" xmlns="http://www.w3.org/2000/svg" xmlns:xlink="http://www.w3.org/1999/xlink" xml:space="preserve" overflow="hidden"><defs><clipPath id="clip0"><rect x="2474" y="467" width="650" height="650"/></clipPath></defs><g clip-path="url(#clip0)" transform="translate(-2474 -467)"><path d="M2541.72 753.343C2526.39 775.872 2531.79 806.51 2553.89 822.452 2557.07 824.414 2559.57 827.309 2561.05 830.745 2575.79 837.747 2590.93 843.841 2606.39 848.993 2617.44 852.31 2618.54 858.391 2611.37 866.684 2604.18 874.977 2604.74 872.213 2601.96 875.531 2581.88 894.274 2580.77 925.76 2599.52 945.86 2601.77 948.273 2604.25 950.46 2606.94 952.381 2622.08 962.579 2639.23 969.371 2657.24 972.285 2681.54 977.639 2706.45 979.685 2731.3 978.368 2748.92 975.817 2766.82 980.394 2781.05 991.084 2786.45 995.699 2792.9 998.927 2799.83 1000.48 2798.39 994.914 2795.32 989.906 2790.99 986.108 2787.13 980.027 2787.68 975.051 2795.42 972.839 2811.96 968.355 2828.76 964.847 2845.72 962.333 2854.22 961.375 2861.88 967.483 2862.83 975.98 2862.85 976.037 2862.85 976.097 2862.85 976.156 2866.18 987.213 2869.49 998.272 2873.9 1008.78 2878.33 1019.28 2882.76 1022.05 2894.36 1015.41 2938.59 991.673 2972.31 952.22 2988.87 904.833 2990.31 899.229 2993.17 894.087 2997.16 889.905 3016.37 873.838 3033.29 855.239 3047.48 834.616 3049.75 832.047 3051.78 829.271 3053.54 826.323L3062.93 798.126 3062.93 783.75C3064.36 778.498 3064.36 772.969 3062.93 767.717L3058.52 782.645C3056 789.262 3054.16 796.116 3052.99 803.102 3044.23 822.844 3031.21 840.402 3014.86 854.52 3008.78 861.708 3001.59 858.944 3001.59 849.544 3001.59 831.852 2998.28 814.159 2996.61 794.255 2997.22 785.881 3002.29 778.481 3009.88 774.905 3025.62 763.672 3038.04 748.388 3045.8 730.673 3050.04 714.358 3050.04 697.229 3045.8 680.914 3040.29 692.525 3041.39 703.03 3036.96 711.323 3027.82 726.559 3016.03 740.04 3002.14 751.13 2998.88 755.165 2992.96 755.791 2988.93 752.524 2987.13 751.067 2985.92 748.995 2985.56 746.706 2979.92 728.96 2972.33 711.898 2962.89 695.842 2959.88 690.885 2961.45 684.422 2966.41 681.406 2966.71 681.228 2967.01 681.063 2967.33 680.914 2974.03 675.499 2980.3 669.584 2986.11 663.221 2998.35 653.097 3000.04 634.973 2989.93 622.741 2987.77 620.134 2985.18 617.929 2982.25 616.225 2963.45 602.159 2941.71 592.521 2918.68 588.029 2901.95 583.47 2884.57 581.789 2867.28 583.053 2880.54 595.768 2893.81 607.932 2907.64 622.86 2905.09 616.556 2906.13 609.368 2910.39 604.061 2915.67 601.72 2921.69 601.72 2926.97 604.061 2940.38 605.644 2953.54 608.797 2966.22 613.462 2974.47 617.186 2981.68 622.881 2987.21 630.048 2992.47 636.687 2992.47 646.077 2987.21 652.717 2980.07 663.516 2969.59 671.673 2957.38 675.938 2948.71 676.346 2940.42 672.405 2935.26 665.433 2937.85 670.854 2937.85 677.152 2935.26 682.573 2930.81 686.376 2925.49 689.032 2919.79 690.312 2898.77 696.394 2876.68 700.264 2855.11 704.135 2833.57 708.006 2830.24 704.135 2826.93 683.125 2821.4 651.057 2812.01 620.096 2804.27 588.582 2803.01 584.017 2801.34 579.576 2799.28 575.313 2793.77 562.596 2790.99 562.042 2780.5 571.442 2747.1 601.022 2719.85 636.907 2700.34 677.044 2690.4 698.052 2687.09 699.159 2666.63 688.1L2660.57 684.783C2641.65 676.954 2632.68 655.286 2640.51 636.384 2642.46 631.713 2645.32 627.486 2648.95 623.967 2666.5 602.203 2689.62 585.585 2715.82 575.864L2715.82 575.864 2707.53 575.864 2692.05 581.394C2681.01 586.923 2670.51 591.9 2658.89 596.322L2646.74 603.51C2630.31 612.314 2615.7 624.13 2603.63 638.341 2586.18 651.222 2581.81 675.476 2593.67 693.63 2596.89 697.698 2596.21 703.609 2592.14 706.836 2591.12 707.641 2589.96 708.229 2588.7 708.557 2570.51 716.053 2554.42 727.81 2541.72 742.838 2542.67 746.276 2542.67 749.903 2541.72 753.343ZM2952.95 937.454C2937.92 965.697 2917.43 990.689 2892.71 1010.99 2890.99 1013.97 2887.85 1015.85 2884.42 1015.96 2879.43 1015.96 2884.42 1009.33 2881.64 1006.01 2878.88 1002.69 2881.64 983.896 2881.64 971.732 2878.73 964.017 2882.64 955.406 2890.35 952.5 2891.12 952.212 2891.9 951.987 2892.71 951.828 2912.11 946.39 2930.68 938.396 2947.97 928.053 2947.97 928.056 2955.15 922.526 2958.48 928.056 2961.79 933.583 2954.6 934.69 2952.95 938.007ZM2976.17 817.476C2976.17 835.721 2976.17 854.52 2972.84 872.765 2971.93 879.431 2967.79 885.219 2961.79 888.246 2937.24 900.741 2911.73 911.278 2885.52 919.76 2878.33 919.76 2875.02 919.76 2873.9 913.126 2873.9 893.775 2868.94 874.423 2865.61 857.837 2864.02 851.947 2867.48 845.866 2873.37 844.256 2873.73 844.157 2874.09 844.078 2874.47 844.017 2905.94 837.064 2936.41 826.102 2965.12 811.395 2973.96 803.102 2977.27 807.524 2976.17 817.476ZM2856.22 729.015C2886.07 724.559 2915.1 715.805 2942.45 703.03 2945.93 700.564 2950.76 701.397 2953.22 704.888 2954.01 705.974 2954.48 707.236 2954.6 708.557 2960.14 726.803 2965.67 745.048 2970.63 763.846 2971.46 768.067 2969.13 772.266 2965.12 773.798 2933.57 787.666 2900.83 798.586 2867.28 806.419 2862.13 807.036 2857.45 803.359 2856.83 798.204 2856.81 797.994 2856.79 797.785 2856.77 797.572 2853.46 778.774 2850.15 759.977 2846.27 742.284 2844.62 732.332 2849.6 730.673 2856.22 729.015ZM2829.14 860.049C2834.12 881.058 2839.63 901.515 2844.62 921.972 2844.62 928.607 2840.74 929.714 2835.77 930.819 2812.75 935.409 2789.51 938.733 2766.12 940.771 2757.13 941.492 2748.67 936.372 2745.13 928.056 2734.69 910.665 2726.34 892.109 2720.25 872.765 2717.48 865.025 2720.25 863.92 2727.44 863.366 2757.34 861.956 2787.09 858.259 2816.44 852.31 2820.25 849.805 2825.41 850.884 2827.91 854.719 2829.03 856.456 2829.48 858.556 2829.14 860.603ZM2726.89 690.312C2743.09 652.911 2762.9 617.174 2786.03 583.606 2787.07 580.295 2790.31 578.202 2793.77 578.63 2797.63 578.63 2797.08 582.499 2796.53 585.816 2795.76 619.084 2797.61 652.361 2802.06 685.337 2802.06 707.453 2804.82 707.453 2776.09 706.899L2733.51 702.477C2726.89 701.37 2723.56 697.501 2726.89 690.312ZM2711.96 745.601C2712.03 739.8 2716.8 735.155 2722.59 735.227 2724.07 735.244 2725.53 735.577 2726.89 736.203L2782.15 736.203C2805.92 736.203 2805.92 736.203 2809.8 758.319 2811.6 773.953 2814.38 789.462 2818.09 804.761 2820.25 808.795 2818.75 813.824 2814.72 815.994 2813.21 816.804 2811.5 817.128 2809.8 816.925 2779.44 819.381 2748.94 819.381 2718.6 816.925 2713.41 817.239 2708.95 813.294 2708.64 808.112 2708.61 807.732 2708.61 807.353 2708.64 806.973 2707.24 786.66 2708.17 766.256 2711.41 746.155ZM2695.38 899.856C2697.97 910.014 2703.1 919.34 2710.31 926.948 2713.62 930.819 2716.37 935.242 2710.31 936.9 2678.5 935.852 2648.69 921.143 2628.5 896.539 2624.9 890.753 2623.16 883.998 2623.52 877.189 2623.52 859.496 2623.52 859.496 2641.76 859.496 2667.61 856.539 2691.1 874.663 2694.83 900.41ZM2609.15 717.958C2610.46 713.568 2615.08 711.067 2619.47 712.371 2620.32 712.625 2621.13 713.018 2621.87 713.534 2636.97 720.758 2652.95 725.963 2669.41 729.015 2677.15 729.015 2680.46 733.437 2678.25 741.73 2673.65 759.776 2671.95 778.443 2673.27 797.021 2673.27 804.207 2673.27 809.737 2663.32 806.973 2642.22 801.751 2623.06 790.628 2608.04 774.905 2601.92 768.591 2598.88 759.891 2599.75 751.13 2599.26 739.353 2602.57 727.729 2609.15 717.958Z" fill="#E99517" fill-rule="evenodd"/><path d="M2506.5 792.5C2506.5 631.233 2637.46 500.5 2799 500.5 2960.54 500.5 3091.5 631.233 3091.5 792.5 3091.5 953.767 2960.54 1084.5 2799 1084.5 2637.46 1084.5 2506.5 953.767 2506.5 792.5Z" stroke="#E99517" stroke-width="6.875" stroke-miterlimit="8" stroke-opacity="0.2" fill="none" fill-rule="evenodd"/><path d="M2845.5 970.5C2845.5 898.151 2904.15 839.5 2976.5 839.5L2976.5 839.5C3048.85 839.5 3107.5 898.151 3107.5 970.5L3107.5 970.5C3107.5 1042.85 3048.85 1101.5 2976.5 1101.5L2976.5 1101.5C2904.15 1101.5 2845.5 1042.85 2845.5 970.5Z" stroke="#7F7F7F" stroke-width="4.58333" stroke-miterlimit="8" fill="#A9D18E" fill-rule="evenodd"/><path d="M2882 951.405 2958.41 951.405 2958.41 875 2994.59 875 2994.59 951.405 3071 951.405 3071 987.595 2994.59 987.595 2994.59 1064 2958.41 1064 2958.41 987.595 2882 987.595Z" fill="#FFFFFF" fill-rule="evenodd"/></g></svg>