<?xml version="1.0" encoding="utf-8"?>
<!-- Generator: Adobe Illustrator 24.0.1, SVG Export Plug-In . SVG Version: 6.00 Build 0)  -->
<svg version="1.1" id="图层_1" xmlns="http://www.w3.org/2000/svg" xmlns:xlink="http://www.w3.org/1999/xlink" x="0px" y="0px"
	 viewBox="0 0 128 128" style="enable-background:new 0 0 128 128;" xml:space="preserve">
<style type="text/css">
	.st0{fill:#E99517;}
</style>
<path class="st0" d="M16.6,59.4c-3,4.4-1.9,10.3,2.4,13.4c0.6,0.4,1.1,0.9,1.4,1.6c2.9,1.4,5.8,2.5,8.8,3.5c2.1,0.6,2.4,1.8,1,3.4
	c-1.4,1.6-1.3,1.1-1.8,1.7c-3.9,3.6-4.1,9.7-0.5,13.6c0.4,0.5,0.9,0.9,1.4,1.3c2.9,2,6.3,3.3,9.8,3.9c4.7,1,9.6,1.4,14.4,1.2
	c3.4-0.5,6.9,0.4,9.7,2.5c1,0.9,2.3,1.5,3.6,1.8c-0.3-1.1-0.9-2.1-1.7-2.8c-0.8-1.2-0.6-2.1,0.9-2.6c3.2-0.9,6.5-1.6,9.8-2
	c1.6-0.2,3.1,1,3.3,2.6c0,0,0,0,0,0c0.6,2.1,1.3,4.3,2.1,6.3c0.9,2,1.7,2.6,4,1.3c8.6-4.6,15.1-12.3,18.3-21.5
	c0.3-1.1,0.8-2.1,1.6-2.9c3.7-3.1,7-6.7,9.8-10.7c0.4-0.5,0.8-1,1.2-1.6l1.8-5.5v-2.8c0.3-1,0.3-2.1,0-3.1l-0.9,2.9
	c-0.5,1.3-0.8,2.6-1.1,4c-1.7,3.8-4.2,7.2-7.4,10c-1.2,1.4-2.6,0.9-2.6-1c0-3.4-0.6-6.9-1-10.7c0.1-1.6,1.1-3.1,2.6-3.8
	c3.1-2.2,5.5-5.1,7-8.6c0.8-3.2,0.8-6.5,0-9.7c-1.1,2.3-0.9,4.3-1.7,5.9c-1.8,3-4.1,5.6-6.8,7.7c-0.6,0.8-1.8,0.9-2.6,0.3
	c-0.3-0.3-0.6-0.7-0.7-1.1c-1.1-3.4-2.6-6.8-4.4-9.9c-0.6-1-0.3-2.2,0.7-2.8c0.1,0,0.1-0.1,0.2-0.1c1.3-1.1,2.5-2.2,3.6-3.4
	c2.4-2,2.7-5.5,0.7-7.9c-0.4-0.5-0.9-0.9-1.5-1.3c-3.6-2.7-7.9-4.6-12.3-5.5c-3.2-0.9-6.6-1.2-10-1c2.6,2.5,5.2,4.8,7.8,7.7
	c-0.5-1.2-0.3-2.6,0.5-3.6c1-0.5,2.2-0.5,3.2,0c2.6,0.3,5.2,0.9,7.6,1.8c1.6,0.7,3,1.8,4.1,3.2c1,1.3,1,3.1,0,4.4
	c-1.4,2.1-3.4,3.7-5.8,4.5c-1.7,0.1-3.3-0.7-4.3-2c0.5,1.1,0.5,2.3,0,3.3c-0.9,0.7-1.9,1.3-3,1.5c-4.1,1.2-8.4,1.9-12.6,2.7
	c-4.2,0.8-4.8,0-5.5-4.1c-1.1-6.2-2.9-12.2-4.4-18.3c-0.2-0.9-0.6-1.7-1-2.6c-1.1-2.5-1.6-2.6-3.6-0.8c-6.5,5.7-11.8,12.7-15.6,20.5
	c-1.9,4.1-2.6,4.3-6.5,2.1l-1.2-0.6c-3.7-1.5-5.4-5.7-3.9-9.4c0.4-0.9,0.9-1.7,1.6-2.4c3.4-4.2,7.9-7.4,13-9.3l0,0h-1.6l-3,1.1
	c-2.1,1.1-4.2,2-6.4,2.9L37,30.3c-3.2,1.7-6,4-8.4,6.8c-3.4,2.5-4.2,7.2-1.9,10.7c0.6,0.8,0.5,1.9-0.3,2.6c-0.2,0.2-0.4,0.3-0.7,0.3
	c-3.5,1.5-6.7,3.7-9.1,6.7C16.8,58,16.8,58.7,16.6,59.4L16.6,59.4z M96.4,95.1c-2.9,5.5-6.9,10.3-11.7,14.3c-0.3,0.6-0.9,0.9-1.6,1
	c-1,0,0-1.3-0.5-1.9c-0.5-0.6,0-4.3,0-6.7c-0.6-1.5,0.2-3.2,1.7-3.7c0.1-0.1,0.3-0.1,0.5-0.1c3.8-1.1,7.4-2.6,10.7-4.6
	c0,0,1.4-1.1,2,0s-0.8,1.3-1.1,1.9V95.1z M100.9,71.8c0,3.5,0,7.2-0.6,10.7c-0.2,1.3-1,2.4-2.1,3c-4.8,2.4-9.7,4.5-14.8,6.1
	c-1.4,0-2,0-2.3-1.3c0-3.8-1-7.5-1.6-10.7c-0.3-1.1,0.4-2.3,1.5-2.6c0.1,0,0.1,0,0.2,0c6.1-1.3,12-3.5,17.6-6.3
	C100.5,69,101.2,69.9,100.9,71.8L100.9,71.8z M77.7,54.6c5.8-0.9,11.4-2.6,16.7-5c0.7-0.5,1.6-0.3,2.1,0.4c0.1,0.2,0.2,0.5,0.3,0.7
	c1.1,3.5,2.1,7.1,3.1,10.7c0.2,0.8-0.3,1.6-1.1,1.9c-6.1,2.7-12.5,4.8-19,6.3c-1,0.1-1.9-0.6-2-1.6c0,0,0-0.1,0-0.1
	c-0.6-3.6-1.3-7.3-2-10.7C75.4,55.3,76.4,55,77.7,54.6z M72.4,80.1c1,4.1,2,8,3,12c0,1.3-0.8,1.5-1.7,1.7c-4.5,0.9-9,1.5-13.5,1.9
	c-1.7,0.1-3.4-0.9-4.1-2.5c-2-3.4-3.6-7-4.8-10.7c-0.5-1.5,0-1.7,1.4-1.8c5.8-0.3,11.6-1,17.3-2.1c0.7-0.5,1.7-0.3,2.2,0.5
	c0.2,0.3,0.3,0.7,0.2,1.1V80.1z M52.6,47.1c3.1-7.3,7-14.2,11.5-20.7c0.2-0.6,0.8-1,1.5-1c0.8,0,0.6,0.8,0.5,1.4
	c-0.2,6.5,0.2,12.9,1.1,19.3c0,4.3,0.5,4.3-5,4.2l-8.3-0.9C52.6,49.3,51.9,48.5,52.6,47.1z M49.7,57.9c0-1.1,0.9-2,2.1-2
	c0.3,0,0.6,0.1,0.8,0.2h10.7c4.6,0,4.6,0,5.4,4.3c0.4,3,0.9,6,1.6,9c0.4,0.8,0.1,1.8-0.7,2.2c-0.3,0.2-0.6,0.2-1,0.2
	c-5.9,0.5-11.8,0.5-17.7,0c-1,0.1-1.9-0.7-1.9-1.7c0-0.1,0-0.1,0-0.2c-0.3-3.9-0.1-7.9,0.5-11.8L49.7,57.9z M46.4,87.8
	c0.5,2,1.5,3.8,2.9,5.3c0.6,0.8,1.2,1.6,0,1.9c-6.2-0.2-12-3.1-15.9-7.8c-0.7-1.1-1-2.4-1-3.8c0-3.4,0-3.4,3.5-3.4
	c5-0.6,9.6,2.9,10.3,7.9L46.4,87.8z M29.7,52.5c0.3-0.9,1.1-1.3,2-1.1c0.2,0,0.3,0.1,0.5,0.2c2.9,1.4,6,2.4,9.2,3
	c1.5,0,2.1,0.9,1.7,2.5c-0.9,3.5-1.2,7.1-1,10.7c0,1.4,0,2.5-1.9,1.9c-4.1-1-7.8-3.2-10.7-6.2c-1.2-1.2-1.8-2.9-1.6-4.6
	C27.8,56.7,28.4,54.4,29.7,52.5L29.7,52.5z"/>
</svg>
