<svg width="655" height="655" xmlns="http://www.w3.org/2000/svg" xmlns:xlink="http://www.w3.org/1999/xlink" xml:space="preserve" overflow="hidden"><defs><clipPath id="clip0"><rect x="592" y="270" width="655" height="655"/></clipPath></defs><g clip-path="url(#clip0)" transform="translate(-592 -270)"><path d="M594.5 339.586C594.5 302.536 624.535 272.5 661.586 272.5L1177.41 272.5C1214.46 272.5 1244.5 302.536 1244.5 339.586L1244.5 855.414C1244.5 892.465 1214.46 922.5 1177.41 922.5L661.586 922.5C624.535 922.5 594.5 892.465 594.5 855.414Z" stroke="#595959" stroke-width="4.58333" stroke-miterlimit="8" fill="#FFFFFF" fill-rule="evenodd"/><path d="M644.307 558.203C627.937 582.271 633.711 615.001 657.304 632.032 660.7 634.127 663.372 637.22 664.956 640.891 680.693 648.37 696.859 654.88 713.365 660.384 725.161 663.928 726.338 670.424 718.685 679.283 711.01 688.143 711.599 685.19 708.632 688.734 687.191 708.758 686.013 742.394 706.029 763.865 708.429 766.444 711.078 768.78 713.953 770.833 730.12 781.727 748.436 788.982 767.659 792.095 793.607 797.814 820.211 800.001 846.747 798.594 865.562 795.868 884.671 800.757 899.864 812.177 905.638 817.108 912.521 820.557 919.925 822.218 918.385 816.27 915.102 810.92 910.483 806.862 906.362 800.366 906.951 795.05 915.215 792.687 932.876 787.897 950.808 784.149 968.921 781.464 978 780.44 986.174 786.965 987.193 796.043 987.216 796.104 987.216 796.167 987.216 796.231 990.77 808.042 994.303 819.857 999.012 831.077 1003.74 842.3 1008.48 845.255 1020.86 838.167 1068.09 812.807 1104.09 770.66 1121.78 720.037 1123.31 714.051 1126.37 708.558 1130.63 704.09 1151.14 686.926 1169.21 667.057 1184.36 645.026 1186.78 642.282 1188.95 639.316 1190.83 636.167L1200.86 606.044 1200.86 590.686C1202.38 585.077 1202.38 579.169 1200.86 573.559L1196.15 589.506C1193.46 596.575 1191.49 603.897 1190.24 611.36 1180.89 632.451 1166.99 651.207 1149.53 666.289 1143.04 673.968 1135.36 671.015 1135.36 660.973 1135.36 642.073 1131.83 623.172 1130.04 601.909 1130.7 592.964 1136.11 585.058 1144.21 581.238 1161.01 569.238 1174.28 552.91 1182.57 533.986 1187.1 516.557 1187.1 498.258 1182.57 480.829 1176.68 493.233 1177.86 504.455 1173.13 513.315 1163.37 529.59 1150.78 543.992 1135.95 555.84 1132.46 560.15 1126.15 560.818 1121.84 557.329 1119.92 555.772 1118.63 553.558 1118.24 551.114 1112.22 532.155 1104.11 513.929 1094.04 496.776 1090.82 491.481 1092.5 484.577 1097.8 481.355 1098.11 481.165 1098.43 480.988 1098.77 480.829 1105.93 475.044 1112.63 468.725 1118.83 461.928 1131.9 451.113 1133.71 431.751 1122.91 418.684 1120.6 415.899 1117.84 413.543 1114.71 411.723 1094.63 396.696 1071.42 386.4 1046.83 381.601 1028.97 376.732 1010.4 374.935 991.948 376.285 1006.1 389.869 1020.27 402.864 1035.04 418.811 1032.32 412.077 1033.43 404.398 1037.98 398.729 1043.62 396.227 1050.05 396.227 1055.68 398.729 1069.99 400.419 1084.05 403.788 1097.59 408.771 1106.4 412.749 1114.1 418.833 1120.01 426.49 1125.62 433.582 1125.62 443.613 1120.01 450.707 1112.38 462.242 1101.19 470.957 1088.15 475.514 1078.89 475.949 1070.04 471.739 1064.54 464.291 1067.3 470.082 1067.3 476.81 1064.54 482.601 1059.78 486.664 1054.1 489.501 1048.01 490.869 1025.57 497.366 1001.98 501.5 978.951 505.636 955.948 509.771 952.393 505.636 948.861 483.19 942.951 448.933 932.921 415.858 924.657 382.192 923.321 377.316 921.532 372.571 919.336 368.017 913.449 354.431 910.483 353.84 899.275 363.882 863.615 395.482 834.52 433.817 813.69 476.694 803.071 499.137 799.539 500.32 777.69 488.506L771.214 484.962C751.018 476.599 741.44 453.451 749.795 433.258 751.878 428.269 754.934 423.752 758.806 419.994 777.553 396.744 802.233 378.991 830.218 368.606L830.218 368.606 821.365 368.606 804.837 374.514C793.041 380.42 781.833 385.736 769.425 390.461L756.452 398.139C738.904 407.545 723.304 420.168 710.421 435.349 691.787 449.11 687.123 475.02 699.78 494.413 703.221 498.759 702.496 505.074 698.149 508.52 697.063 509.381 695.817 510.009 694.481 510.36 675.055 518.367 657.87 530.927 644.307 546.981 645.326 550.653 645.326 554.528 644.307 558.203ZM1083.42 754.886C1067.37 785.058 1045.5 811.756 1019.1 833.44 1017.26 836.624 1013.91 838.636 1010.24 838.756 1004.92 838.756 1010.24 831.669 1007.28 828.124 1004.33 824.581 1007.28 804.499 1007.28 791.504 1004.17 783.263 1008.34 774.064 1016.58 770.96 1017.4 770.651 1018.23 770.411 1019.1 770.241 1039.81 764.432 1059.65 755.892 1078.1 744.843 1078.1 744.846 1085.77 738.938 1089.33 744.846 1092.86 750.751 1085.19 751.933 1083.42 755.477ZM1108.21 626.716C1108.21 646.206 1108.21 666.289 1104.66 685.78 1103.68 692.901 1099.27 699.085 1092.86 702.318 1066.64 715.666 1039.4 726.923 1011.42 735.984 1003.74 735.984 1000.21 735.984 999.012 728.896 999.012 708.225 993.714 687.552 990.159 669.833 988.461 663.54 992.151 657.044 998.446 655.324 998.831 655.218 999.216 655.134 999.624 655.069 1033.22 647.641 1065.76 635.931 1096.42 620.219 1105.86 611.36 1109.39 616.085 1108.21 626.716ZM980.129 532.214C1012.01 527.454 1043 518.102 1072.21 504.455 1075.93 501.82 1081.09 502.71 1083.71 506.44 1084.55 507.6 1085.05 508.948 1085.19 510.36 1091.1 529.851 1097.01 549.342 1102.3 569.424 1103.19 573.933 1100.7 578.419 1096.42 580.055 1062.73 594.87 1027.77 606.536 991.948 614.904 986.446 615.563 981.442 611.634 980.785 606.128 980.763 605.904 980.741 605.68 980.718 605.453 977.186 585.371 973.654 565.291 969.51 546.389 967.744 535.758 973.065 533.986 980.129 532.214ZM951.215 672.196C956.536 694.639 962.423 716.493 967.744 738.347 967.744 745.435 963.601 746.618 958.302 747.798 933.714 752.701 908.898 756.252 883.925 758.429 874.325 759.2 865.29 753.73 861.509 744.846 850.369 726.268 841.449 706.444 834.95 685.78 831.984 677.511 834.95 676.331 842.626 675.739 874.551 674.233 906.317 670.283 937.653 663.928 941.728 661.252 947.231 662.405 949.902 666.502 951.102 668.358 951.578 670.601 951.215 672.787ZM842.037 490.869C859.335 450.913 880.483 412.736 905.185 376.877 906.294 373.339 909.759 371.103 913.449 371.561 917.57 371.561 916.982 375.694 916.393 379.238 915.577 414.777 917.547 450.327 922.302 485.553 922.302 509.18 925.245 509.18 894.566 508.588L849.101 503.864C842.037 502.681 838.482 498.548 842.037 490.869ZM826.097 549.933C826.165 543.736 831.26 538.774 837.441 538.851 839.026 538.869 840.588 539.225 842.037 539.893L901.041 539.893C926.423 539.893 926.423 539.893 930.566 563.519 932.491 580.221 935.457 596.788 939.419 613.132 941.728 617.442 940.121 622.814 935.819 625.132 934.212 625.998 932.378 626.344 930.566 626.127 898.143 628.751 865.584 628.751 833.184 626.127 827.637 626.462 822.882 622.247 822.543 616.712 822.52 616.306 822.52 615.901 822.543 615.495 821.048 593.795 822.044 571.998 825.509 550.524ZM808.392 714.721C811.154 725.573 816.633 735.535 824.331 743.663 827.864 747.798 830.807 752.522 824.331 754.294 790.369 753.175 758.535 737.461 736.98 711.177 733.131 704.996 731.274 697.779 731.659 690.506 731.659 671.604 731.659 671.604 751.131 671.604 778.731 668.446 803.818 687.808 807.803 715.313ZM716.308 520.402C717.712 515.712 722.648 513.041 727.335 514.434 728.24 514.706 729.1 515.125 729.893 515.676 746.014 523.393 763.086 528.953 780.656 532.214 788.92 532.214 792.452 536.938 790.097 545.798 785.184 565.075 783.373 585.017 784.776 604.864 784.776 612.54 784.776 618.448 774.157 615.495 751.629 609.917 731.161 598.034 715.13 581.238 708.587 574.493 705.349 565.198 706.278 555.84 705.757 543.258 709.289 530.841 716.308 520.402Z" fill="#E99517" fill-rule="evenodd"/></g></svg>