<svg width="64" height="64" viewBox="0 0 64 64" fill="none" xmlns="http://www.w3.org/2000/svg">
<path fill-rule="evenodd" clip-rule="evenodd" d="M45.0513 48.4729C40.9069 52.5118 35.244 55 29 55C16.2975 55 6 44.7025 6 32C6 19.2975 16.2975 9 29 9C41.7025 9 52 19.2975 52 32C52 37.1247 50.3239 41.858 47.4901 45.6816L57.1959 52.6842L55.0365 55.6771L45.0513 48.4729ZM48 32C48 42.4934 39.4934 51 29 51C18.5066 51 10 42.4934 10 32C10 21.5066 18.5066 13 29 13C39.4934 13 48 21.5066 48 32Z" fill="#424242"/>
</svg>
