<svg width="650" height="649" xmlns="http://www.w3.org/2000/svg" xmlns:xlink="http://www.w3.org/1999/xlink" xml:space="preserve" overflow="hidden"><defs><clipPath id="clip0"><rect x="3218" y="336" width="650" height="649"/></clipPath></defs><g clip-path="url(#clip0)" transform="translate(-3218 -336)"><path d="M3533.45 479.878C3442.33 479.878 3368.46 553.751 3368.46 644.878 3368.46 736.005 3442.33 809.878 3533.45 809.878 3624.58 809.878 3698.46 736.005 3698.45 644.878 3698.46 553.75 3624.58 479.878 3533.45 479.878ZM3532.4 449.996C3640.03 449.996 3727.28 537.247 3727.28 644.877 3727.28 671.785 3721.83 697.419 3711.97 720.735L3698.24 746.029 3795.1 829.155 3773.17 854.701 3678.1 773.108 3670.2 782.68C3634.94 817.947 3586.21 839.76 3532.4 839.759 3424.77 839.76 3337.52 752.508 3337.52 644.878 3337.52 537.247 3424.77 449.996 3532.4 449.996Z" stroke="#DD8C15" stroke-width="4.58333" stroke-miterlimit="8" fill="#E99517" fill-rule="evenodd"/></g></svg>