<svg width="64" height="64" viewBox="0 0 64 64" fill="none" xmlns="http://www.w3.org/2000/svg">
<path d="M53.3316 46.7857H49.9949V43.5001H51.6633V36.9286H44.9897V38.5715H41.6529V35.2857C41.6529 34.3784 42.3999 33.6429 43.3214 33.6429H53.3316C54.2531 33.6429 55 34.3784 55 35.2857V45.1429C55 46.0502 54.2531 46.7857 53.3316 46.7857Z" fill="#424242"/>
<path d="M44.9897 55H34.9794C34.058 55 33.311 54.2646 33.311 53.3572V43.5001C33.311 42.5927 34.058 41.8571 34.9794 41.8571H44.9897C45.9111 41.8571 46.6581 42.5927 46.6581 43.5001V53.3572C46.6581 54.2646 45.9111 55 44.9897 55ZM36.6478 51.7143H43.3214V45.1429H36.6478V51.7143Z" fill="#424242"/>
<path d="M29.9743 38.3382C26.414 37.4244 24.2799 33.8418 25.2078 30.3359C26.1357 26.8301 29.7741 24.7287 33.3344 25.6423C36.2721 26.3962 38.3207 29.0107 38.3162 32H41.6529C41.6586 26.5561 37.1813 22.1384 31.6528 22.1328C26.1243 22.1274 21.638 26.536 21.6323 31.98C21.6274 36.7939 25.1541 40.907 29.9743 41.7093V38.3382Z" fill="#424242"/>
<path d="M53.1481 27.975L49.2942 31.31L46.925 28.9771L50.9459 25.4943L47.0085 18.7915L41.2693 20.6972C39.9249 19.5953 38.4021 18.7234 36.7646 18.1178L35.5801 12.2857H27.7052L26.5208 18.1178C24.87 18.7065 23.3389 19.5798 21.9994 20.6972L16.2769 18.7915L12.3394 25.4943L16.8774 29.4207C16.5688 31.1213 16.5688 32.8623 16.8774 34.5629L12.3394 38.5058L16.2769 45.2086L22.0161 43.3029C23.3604 44.4048 24.8832 45.2766 26.5208 45.8821L27.7052 51.7143H29.9743V55H27.7052C26.1143 54.9987 24.7455 53.8916 24.4352 52.3551L23.5844 48.215C22.8291 47.8523 22.0988 47.4406 21.3988 46.9829L17.3446 48.3301C16.9998 48.4404 16.6394 48.4959 16.2769 48.4943C15.0835 48.5024 13.979 47.8738 13.3905 46.8514L9.45313 40.1486C8.64997 38.79 8.9367 37.0613 10.1372 36.025L13.3405 33.265C13.3071 32.8378 13.2904 32.4272 13.2904 32C13.2904 31.5729 13.3238 31.1621 13.3571 30.7514L10.1372 27.975C8.9367 26.9387 8.64997 25.2101 9.45313 23.8514L13.3905 17.1485C13.979 16.1262 15.0835 15.4977 16.2769 15.5057C16.6394 15.504 16.9998 15.5596 17.3446 15.67L21.3821 17.0171C22.088 16.5593 22.8235 16.1476 23.5844 15.785L24.4352 11.645C24.7455 10.1084 26.1143 9.00127 27.7052 9H35.5801C37.171 9.00127 38.5398 10.1084 38.8501 11.645L39.7009 15.785C40.4562 16.1477 41.1865 16.5593 41.8866 17.0171L45.9407 15.67C46.2854 15.5596 46.6459 15.504 47.0085 15.5057C48.2019 15.4977 49.3062 16.1262 49.8948 17.1485L53.8321 23.8514C54.6353 25.2101 54.3486 26.9387 53.1481 27.975Z" fill="#424242"/>
</svg>
