<svg width="649" height="649" xmlns="http://www.w3.org/2000/svg" xmlns:xlink="http://www.w3.org/1999/xlink" xml:space="preserve" overflow="hidden"><defs><clipPath id="clip0"><rect x="2273" y="469" width="649" height="649"/></clipPath><clipPath id="clip1"><rect x="2313" y="509" width="569" height="571"/></clipPath><clipPath id="clip2"><rect x="2313" y="509" width="569" height="571"/></clipPath><clipPath id="clip3"><rect x="2313" y="509" width="569" height="571"/></clipPath></defs><g clip-path="url(#clip0)" transform="translate(-2273 -469)"><g clip-path="url(#clip1)"><g clip-path="url(#clip2)"><g clip-path="url(#clip3)"><path d="M515.656 444.531 480.094 444.531 480.094 408.969 497.875 408.969 497.875 337.844 426.75 337.844 426.75 355.625 391.187 355.625 391.187 320.062C391.187 310.242 399.148 302.281 408.969 302.281L515.656 302.281C525.477 302.281 533.437 310.242 533.437 320.062L533.437 426.75C533.437 436.57 525.477 444.531 515.656 444.531Z" fill="#262626" transform="matrix(1 0 0 1.00176 2313 509)"/><path d="M426.75 533.437 320.062 533.437C310.242 533.437 302.281 525.477 302.281 515.656L302.281 408.969C302.281 399.148 310.242 391.187 320.062 391.187L426.75 391.187C436.57 391.187 444.531 399.148 444.531 408.969L444.531 515.656C444.531 525.477 436.57 533.437 426.75 533.437ZM337.844 497.875 408.969 497.875 408.969 426.75 337.844 426.75Z" fill="#262626" transform="matrix(1 0 0 1.00176 2313 509)"/><path d="M266.719 353.1C228.774 343.21 206.03 304.434 215.919 266.489 225.808 228.544 264.585 205.8 302.53 215.688 333.839 223.848 355.673 252.145 355.625 284.5L391.187 284.5C391.248 225.578 343.53 177.764 284.608 177.704 225.687 177.645 177.873 225.361 177.812 284.283 177.76 336.386 215.347 380.903 266.719 389.587Z" fill="#262626" transform="matrix(1 0 0 1.00176 2313 509)"/><path d="M513.7 240.936 472.626 277.032 447.376 251.782 490.229 214.086 448.265 141.539 387.098 162.165C372.77 150.239 356.541 140.802 339.088 134.248L326.464 71.125 242.536 71.125 229.912 134.248C212.319 140.619 196.001 150.072 181.724 162.165L120.735 141.539 78.7709 214.086 127.136 256.583C123.846 274.989 123.846 293.833 127.136 312.239L78.7709 354.914 120.735 427.461 181.902 406.835C196.23 418.761 212.459 428.197 229.912 434.751L242.536 497.875 266.719 497.875 266.719 533.437 242.536 533.437C225.58 533.423 210.992 521.44 207.685 504.81L198.617 460.001C190.567 456.075 182.784 451.619 175.323 446.665L132.115 461.246C128.44 462.44 124.599 463.041 120.735 463.024 108.016 463.111 96.2454 456.308 89.9731 445.242L48.0094 372.695C39.4495 357.99 42.5054 339.28 55.2997 328.064L89.4397 298.191C89.084 293.568 88.9062 289.123 88.9062 284.5 88.9062 279.877 89.2619 275.431 89.6175 270.986L55.2997 240.936C42.5054 229.719 39.4495 211.01 48.0094 196.305L89.9731 123.757C96.2454 112.692 108.016 105.889 120.735 105.976 124.599 105.958 128.44 106.559 132.115 107.754L175.145 122.335C182.669 117.379 190.508 112.924 198.617 108.999L207.685 64.1903C210.992 47.5593 225.58 35.5762 242.536 35.5625L326.464 35.5625C343.42 35.5762 358.008 47.5593 361.315 64.1903L370.383 108.999C378.433 112.925 386.216 117.38 393.677 122.335L436.885 107.754C440.559 106.559 444.401 105.958 448.265 105.976 460.984 105.889 472.754 112.692 479.027 123.757L520.99 196.305C529.55 211.01 526.494 229.719 513.7 240.936Z" fill="#262626" transform="matrix(1 0 0 1.00176 2313 509)"/></g></g></g></g></svg>