<?xml version="1.0" standalone="no"?><!DOCTYPE svg PUBLIC "-//W3C//DTD SVG 1.1//EN" "http://www.w3.org/Graphics/SVG/1.1/DTD/svg11.dtd"><svg t="1669521707695" class="icon" viewBox="0 0 1024 1024" version="1.1" xmlns="http://www.w3.org/2000/svg" p-id="9317" xmlns:xlink="http://www.w3.org/1999/xlink" width="200" height="200"><path d="M377.706907 703.860752a64.915315 64.915315 0 0 1 30.626872 7.04387 221.556095 221.556095 0 0 0 33.683353 14.08774 63.705135 63.705135 0 0 1 44.714613 61.238229c0 11.682895 9.464231 21.131611 21.13161 21.131611h7.354173a21.131611 21.131611 0 0 0 20.821308-21.131611 63.68962 63.68962 0 0 1 44.714613-61.238229 222.6887 222.6887 0 0 0 33.683353-14.08774 63.705135 63.705135 0 0 1 74.426092 11.636349 21.131611 21.131611 0 0 0 30.611356 0l5.213085-5.213084a21.131611 21.131611 0 0 0 0-30.626872 63.999922 63.999922 0 0 1-11.63635-74.410577c5.616478-10.829563 10.317563-22.093549 14.087741-33.698868a63.705135 63.705135 0 0 1 61.253744-44.714612c11.66738 0 21.131611-9.464231 21.131611-21.131611v-5.197569c0-11.558774-9.278049-20.960944-20.836824-21.131611a63.705135 63.705135 0 0 1-61.238228-44.714613 224.612576 224.612576 0 0 0-14.087741-33.683353 63.705135 63.705135 0 0 1 8.564353-75.341484 21.131611 21.131611 0 0 0 0-30.626872l-5.197569-5.19757a21.441913 21.441913 0 0 0-30.626872 0 63.68962 63.68962 0 0 1-74.426092 11.63635 220.175248 220.175248 0 0 0-33.667838-14.087741 63.705135 63.705135 0 0 1-44.730127-61.253744c0-11.558774-9.262534-20.960944-20.821308-21.13161h-4.902782c-11.66738 0-21.131611 9.464231-21.131611 21.13161a63.705135 63.705135 0 0 1-44.714613 61.253744c-11.589804 3.754662-22.85379 8.471262-33.667838 14.087741a63.68962 63.68962 0 0 1-74.426091-11.326047 21.441913 21.441913 0 0 0-30.626872 0l-5.213085 5.197569a21.131611 21.131611 0 0 0 0 30.626872 63.705135 63.705135 0 0 1 11.63635 74.410577c-5.585448 10.845078-10.302048 22.109064-14.087741 33.698868a63.68962 63.68962 0 0 1-61.253744 44.699097c-11.66738 0-21.131611 9.464231-21.13161 21.147126v7.028355c0 11.682895 9.464231 21.131611 21.13161 21.131611a63.705135 63.705135 0 0 1 61.253744 44.714613c3.770177 11.605319 8.486778 22.869306 14.087741 33.683353a63.705135 63.705135 0 0 1-11.326047 74.426091 21.131611 21.131611 0 0 0 0 30.626872l5.197569 5.213085a21.131611 21.131611 0 0 0 30.626872 0 63.410347 63.410347 0 0 1 43.79922-19.905915m136.284926 146.074974h-6.43878a63.999922 63.999922 0 0 1-63.999923-63.999922c0-9.153928-5.973326-17.221797-14.708346-19.905916a268.117008 268.117008 0 0 1-40.122133-16.539131 20.805793 20.805793 0 0 0-24.482879 3.677086 64.32574 64.32574 0 0 1-91.880616 0l-5.213085-5.213084a63.999922 63.999922 0 0 1 0-91.880616 20.836823 20.836823 0 0 0 3.677087-24.498395 269.109977 269.109977 0 0 1-16.539132-40.41692 20.821308 20.821308 0 0 0-19.905915-14.708346A64.32574 64.32574 0 0 1 170.672976 513.971042v-6.423264a64.015438 64.015438 0 0 1 64.015438-64.930831c9.153928 0 17.221797-5.957811 19.905915-14.692831 4.421813-13.901559 9.9452-27.415239 16.539131-40.432435a20.836823 20.836823 0 0 0-3.677086-24.498395 64.310225 64.310225 0 0 1 0-91.865101l5.197569-5.213084a65.535921 65.535921 0 0 1 91.880616 0 20.821308 20.821308 0 0 0 24.51391 3.677086c12.551742-6.004356 25.553424-11.015744 38.880923-15.003133 8.73502-2.699633 14.708346-10.767502 14.708345-19.905915A64.310225 64.310225 0 0 1 507.24275 170.667701h7.664476a64.015438 64.015438 0 0 1 63.084529 64.015438c0 9.138413 5.957811 17.221797 14.708346 19.905915 13.886044 4.406298 27.415239 9.929685 40.416921 16.539131 8.083384 4.282177 18.028584 2.792724 24.513909-3.677086a65.535921 65.535921 0 0 1 91.849586 0l5.213085 5.197569a64.310225 64.310225 0 0 1 0.930908 90.949708l-0.930908 0.930908a20.821308 20.821308 0 0 0-3.661572 24.51391c6.609447 12.986166 12.148349 26.499847 16.539132 40.416921 2.684118 8.73502 10.751987 14.692831 19.905915 14.69283a63.999922 63.999922 0 0 1 62.463924 63.394833v7.04387a63.999922 63.999922 0 0 1-63.999922 63.999922c-9.153928 0-17.221797 5.973326-19.905915 14.708346a263.028045 263.028045 0 0 1-16.539132 40.416921 20.836823 20.836823 0 0 0 3.677087 24.513909 64.015438 64.015438 0 0 1 0 91.865101l-5.213085 5.213085a63.999922 63.999922 0 0 1-91.865101 0 20.836823 20.836823 0 0 0-24.513909-3.677087c-13.001681 6.593931-26.530877 12.117319-40.416921 16.539132a20.821308 20.821308 0 0 0-14.708346 19.905915 64.310225 64.310225 0 0 1-62.463924 61.858834" fill="#515151" p-id="9318"></path><path d="M510.299231 434.052594a76.56718 76.56718 0 1 0 76.56718 76.551665 76.56718 76.56718 0 0 0-76.241362-76.861968h-0.310303v0.310303z m0 195.987156a119.435492 119.435492 0 1 1 119.466522-119.435491 119.745794 119.745794 0 0 1-119.466522 119.435491z" fill="#515151" p-id="9319"></path><path d="M510.299231 434.052594a76.56718 76.56718 0 1 0 76.56718 76.551665 76.56718 76.56718 0 0 0-76.241362-76.861968h-0.310303v0.310303z" fill="#F8D02D" p-id="9320"></path></svg>