<svg width="64" height="64" viewBox="0 0 64 64" fill="none" xmlns="http://www.w3.org/2000/svg">
<path d="M17.6 27.2H8V17.6C8.00254 15.0547 9.01478 12.6144 10.8146 10.8146C12.6144 9.01478 15.0547 8.00254 17.6 8H27.2V17.6H17.6V27.2Z" fill="#2F80ED"/>
<path d="M56 27.2H46.4V17.6H36.8V8H46.4C48.9453 8.00254 51.3856 9.01478 53.1854 10.8146C54.9852 12.6144 55.9974 15.0547 56 17.6V27.2Z" fill="#2F80ED"/>
<path d="M27.2 56H17.6C15.0547 55.9975 12.6144 54.9852 10.8146 53.1854C9.01478 51.3856 8.00254 48.9453 8 46.4V36.8H17.6V46.4H27.2V56Z" fill="#2F80ED"/>
<path d="M46.4 56H36.8V46.4H46.4V36.8H56V46.4C55.9974 48.9453 54.9852 51.3856 53.1854 53.1854C51.3856 54.9852 48.9453 55.9975 46.4 56Z" fill="#2F80ED"/>
</svg>
