<svg width="64" height="64" viewBox="0 0 64 64" fill="none" xmlns="http://www.w3.org/2000/svg">
<path d="M13.0999 40.8011L6.33287 43.6712C4.56778 44.4197 4.55215 46.9498 6.3077 47.721L31.5684 58.8186C32.1301 59.0655 32.7686 59.0601 33.3264 58.8041L57.7247 47.6034C59.4421 46.8148 59.4198 44.3336 57.6884 43.5772L51.1468 40.7192L33.3264 48.9002C32.7686 49.1562 32.1301 49.1616 31.5684 48.9147L13.0999 40.8011Z" fill="#6C71F3"/>
<path d="M6.30768 36.7168C4.55212 35.9455 4.56795 33.4155 6.33302 32.6669L31.6509 21.9291C32.1942 21.6986 32.8065 21.702 33.3473 21.9382L57.6884 32.5729C59.4198 33.3293 59.4422 35.8106 57.7247 36.5991L33.3265 47.7998C32.7687 48.0558 32.1302 48.0611 31.5684 47.8143L6.30768 36.7168Z" fill="#56CCF2"/>
<path d="M52.0172 7.32759C52.0172 6.04207 50.975 5 49.6896 5C48.4042 5 47.3621 6.04207 47.3621 7.32759V11.9828H42.7069C41.4215 11.9828 40.3793 13.0248 40.3793 14.3103C40.3793 15.5959 41.4215 16.6379 42.7069 16.6379H47.3621V21.2931C47.3621 22.5786 48.4042 23.6207 49.6896 23.6207C50.975 23.6207 52.0172 22.5786 52.0172 21.2931V16.6379H56.6724C57.9578 16.6379 59 15.5959 59 14.3103C59 13.0248 57.9578 11.9828 56.6724 11.9828H52.0172V7.32759Z" fill="#6C71F2"/>
</svg>
