<svg width="64" height="64" viewBox="0 0 64 64" fill="none" xmlns="http://www.w3.org/2000/svg">
<path fill-rule="evenodd" clip-rule="evenodd" d="M2.9849 27.291C1.25263 29.8381 1.86363 33.3016 4.36025 35.1037C4.71961 35.3259 5.00236 35.6529 5.16998 36.0413C6.83527 36.8328 8.54596 37.5217 10.2926 38.1037C11.5409 38.4794 11.6654 39.1662 10.8556 40.1037C10.0434 41.0413 10.1057 40.7291 9.79178 41.1037C7.52289 43.2233 7.39823 46.782 9.51633 49.055C9.77029 49.327 10.0506 49.5746 10.3548 49.7915C12.0656 50.945 14.0038 51.7122 16.038 52.0423C18.7838 52.6466 21.5991 52.8783 24.4071 52.7291C26.3981 52.4413 28.4202 52.9587 30.028 54.1672C30.639 54.6889 31.3673 55.054 32.1508 55.2296C31.9878 54.6 31.6404 54.0339 31.1517 53.6042C30.7156 52.9175 30.7779 52.3545 31.6524 52.1048C33.5213 51.5979 35.4189 51.2011 37.3356 50.9164C38.2963 50.8085 39.1613 51.4995 39.2691 52.4593C39.2716 52.4656 39.2716 52.473 39.2716 52.4794C39.6476 53.7291 40.0215 54.9799 40.5198 56.1672C41.0201 57.3545 41.5217 57.6667 42.8318 56.9175C47.8296 54.2339 51.6392 49.7736 53.5111 44.4169C53.673 43.7831 53.9968 43.2021 54.4476 42.7291C56.618 40.9132 58.5302 38.8106 60.1333 36.4794C60.3894 36.1884 60.619 35.8752 60.818 35.5418L61.8794 32.3535V30.7291C62.0402 30.1355 62.0402 29.5101 61.8794 28.9164L61.381 30.6043C61.0963 31.3524 60.8878 32.127 60.7556 32.9164C59.7661 35.1482 58.2952 37.1334 56.4476 38.7291C55.7609 39.5418 54.9482 39.2296 54.9482 38.1661C54.9482 36.1661 54.5746 34.1662 54.3852 31.9164C54.455 30.9693 55.0275 30.1334 55.8847 29.7291C57.6624 28.4593 59.0667 26.7312 59.9439 24.7291C60.4233 22.8847 60.4233 20.9482 59.9439 19.1037C59.3206 20.4159 59.4455 21.6043 58.945 22.5408C57.9122 24.2635 56.5799 25.7873 55.0106 27.0413C54.6413 27.4974 53.9736 27.5683 53.5175 27.199C53.3143 27.0339 53.1778 26.8 53.1365 26.5408C52.4995 24.5355 51.6413 22.6064 50.5757 20.7916C50.2349 20.2307 50.4127 19.5006 50.9736 19.1588C51.0064 19.1386 51.0402 19.1207 51.0762 19.1037C51.8339 18.491 52.5429 17.8233 53.1989 17.1037C54.582 15.9588 54.7736 13.9101 53.6307 12.527C53.3863 12.2328 53.0942 11.9831 52.763 11.7905C50.6381 10.2011 48.182 9.11114 45.5799 8.6032C43.69 8.08786 41.7249 7.89845 39.7723 8.0413C41.2699 9.47834 42.7693 10.8529 44.3323 12.5408C44.0445 11.8286 44.1619 11.0159 44.6434 10.4159C45.2402 10.1514 45.9207 10.1514 46.5164 10.4159C48.0307 10.5947 49.5185 10.9514 50.9513 11.4783C51.8836 11.8995 52.6984 12.5429 53.3238 13.3535C53.9175 14.1037 53.9175 15.1651 53.3238 15.9164C52.5164 17.1365 51.3323 18.0593 49.9524 18.5408C48.9725 18.5873 48.036 18.1418 47.454 17.3535C47.746 17.9662 47.746 18.6783 47.454 19.291C46.9503 19.7207 46.3492 20.0212 45.7048 20.1662C43.3302 20.854 40.8339 21.291 38.3969 21.7291C35.9628 22.1662 35.5866 21.7291 35.2128 19.3535C34.5874 15.7281 33.526 12.2286 32.6516 8.66563C32.5102 8.15029 32.3209 7.64765 32.0885 7.16617C31.4655 5.72808 31.1517 5.66564 29.9656 6.72807C26.1921 10.072 23.1133 14.1291 20.909 18.6656C19.7853 21.0413 19.4116 21.1662 17.0995 19.9164L16.4142 19.5408C14.2771 18.6561 13.2635 16.2064 14.1476 14.0699C14.3681 13.5418 14.6915 13.0635 15.1012 12.6656C17.085 10.2053 19.6966 8.32701 22.658 7.2286H21.7212L19.9722 7.85294C18.7239 8.47834 17.5379 9.0413 16.2249 9.54077L14.8521 10.3535C12.9952 11.3492 11.3444 12.6847 9.98109 14.291C8.00924 15.7471 7.5157 18.4889 8.85506 20.5408C9.21919 21.0011 9.14246 21.6688 8.68246 22.0339C8.56754 22.1249 8.43569 22.1916 8.29432 22.2286C6.23866 23.0762 4.42014 24.4053 2.9849 26.1037C3.09273 26.4921 3.09273 26.9027 2.9849 27.291ZM49.4519 48.1048C47.7535 51.2974 45.4392 54.1227 42.6455 56.4169C42.4508 56.7534 42.0963 56.9672 41.708 56.9799C41.145 56.9799 41.708 56.2296 41.3947 55.854C41.0826 55.4794 41.3947 53.3545 41.3947 51.9788C41.0656 51.1069 41.5069 50.1333 42.3789 49.8053C42.4656 49.7725 42.5535 49.7471 42.6455 49.7291C44.837 49.1143 46.9365 48.2106 48.8889 47.0413C48.8889 47.0423 49.7005 46.4169 50.0773 47.0423C50.4508 47.6667 49.6392 47.7915 49.4519 48.1672V48.1048ZM52.0751 34.5418C52.0751 36.6042 52.0751 38.7291 51.6995 40.7915C51.5958 41.545 51.1291 42.1989 50.4508 42.5418C47.6762 43.9545 44.7937 45.145 41.8328 46.1037C41.0201 46.1037 40.6466 46.1037 40.5198 45.3545C40.5198 43.1672 39.9592 40.9788 39.583 39.1037C39.4033 38.4381 39.7938 37.7503 40.4599 37.5683C40.5006 37.5577 40.5414 37.5482 40.5846 37.5418C44.1397 36.7556 47.5831 35.5164 50.8275 33.854C51.8265 32.9164 52.2 33.4159 52.0751 34.5418ZM38.5216 24.5408C41.8953 24.0371 45.1746 23.0476 48.2656 21.6043C48.6593 21.3249 49.2053 21.4191 49.4825 21.8138C49.5714 21.9365 49.6243 22.0794 49.6392 22.2286C50.2646 24.291 50.89 26.3535 51.4498 28.4783C51.5439 28.9556 51.2804 29.4307 50.8275 29.6043C47.2625 31.1715 43.563 32.4064 39.7723 33.291C39.1901 33.3609 38.6605 32.945 38.591 32.363C38.5887 32.3386 38.5864 32.3154 38.5839 32.291C38.2102 30.1662 37.8364 28.0413 37.3979 26.0413C37.211 24.9164 37.7741 24.7291 38.5216 24.5408ZM35.4619 39.3545C36.025 41.7291 36.648 44.0413 37.211 46.3545C37.211 47.1037 36.7726 47.2296 36.2119 47.3545C33.61 47.873 30.9839 48.2487 28.3413 48.4794C27.3254 48.5609 26.3693 47.982 25.9692 47.0423C24.7904 45.0762 23.8465 42.9778 23.1588 40.7915C22.8449 39.9164 23.1588 39.7915 23.971 39.7291C27.3493 39.5693 30.7108 39.1513 34.0268 38.4794C34.458 38.1958 35.0403 38.3185 35.323 38.7513C35.45 38.9482 35.5003 39.1852 35.4619 39.4169V39.3545ZM23.9087 20.1662C25.7392 15.9376 27.9771 11.8984 30.591 8.10373C30.7084 7.72913 31.075 7.4921 31.4655 7.54078C31.9016 7.54078 31.8394 7.97781 31.7771 8.35347C31.6907 12.1143 31.8992 15.8762 32.4023 19.6032C32.4023 22.1037 32.7138 22.1037 29.4673 22.0413L24.6562 21.5408C23.9087 21.4159 23.5325 20.9789 23.9087 20.1662ZM22.2219 26.4159C22.2291 25.7609 22.7683 25.2349 23.4224 25.2434C23.5901 25.2455 23.7554 25.2826 23.9087 25.3535H30.1525C32.8384 25.3535 32.8384 25.3535 33.2768 27.854C33.4805 29.6212 33.7944 31.3746 34.2137 33.1037C34.458 33.5598 34.288 34.1281 33.8327 34.3736C33.6627 34.4656 33.4686 34.5016 33.2768 34.4794C29.8458 34.7566 26.4004 34.7566 22.9719 34.4794C22.3849 34.5143 21.8817 34.0688 21.8458 33.4826C21.8434 33.4402 21.8434 33.3968 21.8458 33.3545C21.6876 31.0582 21.793 28.7513 22.1597 26.4783L22.2219 26.4159ZM20.3484 43.854C20.6407 45.0021 21.2204 46.0572 22.0351 46.9164C22.4089 47.3545 22.7203 47.854 22.0351 48.0413C18.4412 47.9238 15.0725 46.2603 12.7916 43.4794C12.3843 42.8254 12.1878 42.0614 12.2285 41.2921C12.2285 39.291 12.2285 39.291 14.289 39.291C17.2097 38.9577 19.8644 41.0064 20.2861 43.9164L20.3484 43.854ZM10.604 23.291C10.7526 22.7947 11.275 22.5122 11.7709 22.6593C11.8667 22.6889 11.9577 22.7334 12.0416 22.7916C13.7475 23.6074 15.5541 24.1958 17.4134 24.5408C18.2879 24.5408 18.6616 25.0413 18.4124 25.9789C17.8925 28.0191 17.7009 30.1291 17.8493 32.2286C17.8493 33.0413 17.8493 33.6667 16.7256 33.3545C14.3417 32.764 12.1758 31.5058 10.4794 29.7291C9.78702 29.0148 9.44437 28.0318 9.54268 27.0413C9.48755 25.7101 9.8613 24.3958 10.604 23.291Z" fill="#424242"/>
</svg>
