<svg width="64" height="64" viewBox="0 0 64 64" fill="none" xmlns="http://www.w3.org/2000/svg">
<rect x="0.3" y="0.3" width="63.4" height="63.4" rx="11.7" fill="white"/>
<path d="M21.6647 7.06409C28.2793 4.32426 35.7115 4.32426 42.3261 7.06409C48.9407 9.80391 54.1961 15.0593 56.9359 21.6739C59.6757 28.2886 59.6757 35.7207 56.9359 42.3353C54.1961 48.95 48.9407 54.2053 42.3261 56.9451C35.7115 59.685 28.2793 59.685 21.6647 56.9451C15.05 54.2053 9.7947 48.95 7.05487 42.3353C4.31504 35.7207 4.31504 28.2886 7.05487 21.6739C9.7947 15.0593 15.05 9.80391 21.6647 7.06409Z" fill="#2F80ED"/>
<path fill-rule="evenodd" clip-rule="evenodd" d="M49.0499 52.9261C47.0522 54.5533 44.8148 55.9002 42.3943 56.9099C41.7759 56.62 41.0963 56.4658 40.4013 56.4658H39.1631C37.0604 56.4658 35.3138 54.8434 35.159 52.7463C35.0749 51.6047 35.4819 50.4815 36.2779 49.659L36.9849 48.9283C38.0947 47.7813 39.5994 47.0996 41.1936 47.0216L41.3923 47.0119C43.4483 46.9113 45.4388 47.7493 46.8038 49.29L47.8463 50.4667C48.4666 51.1668 48.8798 52.0183 49.0499 52.9261ZM49.2897 11.2623C48.5329 11.3951 47.8263 11.754 47.2685 12.3015L46.5893 12.9683C45.9933 13.5535 45.1991 13.8932 44.3643 13.9202L44.1274 13.9279C42.4747 13.9813 41.1585 15.3293 41.1446 16.9828C41.1381 17.7608 40.8375 18.5077 40.3032 19.0734L36.2507 23.3642C35.6716 23.9772 34.8633 24.3212 34.0201 24.3136C32.5052 24.2997 31.2129 25.4068 30.9941 26.9057L30.9771 27.0217C30.8482 27.9051 30.3519 28.693 29.6109 29.191L28.9091 29.6627C28.1136 30.1973 27.6703 31.121 27.7511 32.076L27.7892 32.5262C27.8744 33.5339 27.2283 34.4588 26.2529 34.7256C25.3632 34.9689 24.419 34.6024 23.9266 33.8224L23.4493 33.0663C22.2063 31.0975 19.3714 30.9971 17.9923 32.8731L17.4686 33.5853C17.2439 33.8911 17.0747 34.234 16.969 34.5984L16.3414 36.7612C16.2455 37.0917 15.9183 37.299 15.5785 37.2444C15.3824 37.213 15.2097 37.0975 15.1057 36.9283L12.5223 32.7264C11.6921 31.376 10.2241 30.5496 8.639 30.5401L7.57102 30.5336C7.05744 30.5305 6.56528 30.3268 6.19994 29.9658L5.17725 28.9556C5.45883 26.4709 6.08657 24.0162 7.06055 21.6647C9.80038 15.05 15.0557 9.7947 21.6704 7.05487C28.285 4.31504 35.7171 4.31504 42.3318 7.05487C44.8737 8.10775 47.2149 9.53211 49.2897 11.2623ZM5.03875 30.6579L6.76261 32.3862C7.67855 33.3044 7.67865 34.7907 6.763 35.7092C6.38441 36.089 5.8905 36.3254 5.36494 36.3856C5.05268 34.4908 4.94398 32.5704 5.03875 30.6579ZM26.7302 37.5251C25.4866 37.7718 24.8796 39.1914 25.5604 40.2609L27.3939 43.141C27.9621 44.0337 28.8508 44.6747 29.8771 44.9322L31.4062 45.3159C32.0183 45.4695 32.6661 45.2881 33.1095 44.8389C33.8217 44.1171 33.7894 42.9474 33.0386 42.2659L28.2921 37.9583C27.8695 37.5748 27.2901 37.4141 26.7302 37.5251ZM43.6958 21.7603C44.5683 20.7877 44.1144 19.237 42.8551 18.8883C42.1213 18.6853 41.34 18.9769 40.9189 19.6113L39.3363 21.9953C38.7566 22.8685 39.1912 24.0536 40.1982 24.345C40.7706 24.5106 41.3873 24.3339 41.7852 23.8904L43.6958 21.7603ZM38.459 42.5824C38.2619 43.4652 38.9118 44.3112 39.8157 44.3481L43.5387 44.5003C44.0277 44.5203 44.5091 44.3752 44.9055 44.0883L45.2122 43.8667C45.5209 43.6432 45.7197 43.2985 45.7583 42.9194C45.8385 42.1319 45.2204 41.4478 44.429 41.4478H39.8749C39.1955 41.4478 38.6071 41.9193 38.459 42.5824ZM33.7984 38.9104C32.7089 38.2138 32.5288 36.6948 33.4252 35.7628L35.6938 33.4042C35.964 33.1232 36.3678 33.015 36.7424 33.1232C37.4129 33.3168 37.7118 34.0984 37.3414 34.69L37.2742 34.7971C37.1372 35.016 37.0781 35.2749 37.1066 35.5316L37.206 36.427C37.2718 37.0203 37.1154 37.6168 36.767 38.1014L36.5665 38.3802C35.931 39.264 34.7155 39.4969 33.7984 38.9104Z" fill="#6FCF97"/>
<rect x="0.3" y="0.3" width="63.4" height="63.4" rx="11.7" stroke="black" stroke-width="0.6"/>
</svg>
