<svg width="64" height="64" viewBox="0 0 64 64" fill="none" xmlns="http://www.w3.org/2000/svg">
<rect x="0.3" y="0.3" width="63.4" height="63.4" rx="11.7" fill="white"/>
<path fill-rule="evenodd" clip-rule="evenodd" d="M5.88641 28.1619C4.32737 30.4543 4.87727 33.5714 7.12422 35.1933C7.44765 35.3933 7.70212 35.6876 7.85298 36.0372C9.35174 36.7495 10.8914 37.3695 12.4634 37.8933C13.5868 38.2314 13.6989 38.8495 12.97 39.6933C12.2391 40.5372 12.2952 40.2562 12.0126 40.5933C9.9706 42.501 9.85841 45.7038 11.7647 47.7495C11.9933 47.9943 12.2456 48.2171 12.5194 48.4124C14.0591 49.4505 15.8035 50.141 17.6342 50.4381C20.1055 50.9819 22.6392 51.1905 25.1664 51.0562C26.9583 50.7971 28.7782 51.2629 30.2252 52.3505C30.7751 52.82 31.4306 53.1486 32.1357 53.3067C31.9891 52.74 31.6764 52.2305 31.2365 51.8438C30.844 51.2257 30.9001 50.719 31.6872 50.4943C33.3692 50.0381 35.077 49.681 36.802 49.4248C37.6667 49.3276 38.4452 49.9495 38.5422 50.8133C38.5444 50.8191 38.5444 50.8257 38.5444 50.8314C38.8829 51.9562 39.2193 53.0819 39.6678 54.1505C40.1181 55.219 40.5695 55.5 41.7486 54.8257C46.2467 52.4105 49.6753 48.3962 51.36 43.5752C51.5057 43.0048 51.7971 42.4819 52.2029 42.0562C54.1562 40.4219 55.8771 38.5295 57.32 36.4314C57.5505 36.1695 57.7571 35.8876 57.9362 35.5876L58.8914 32.7181V31.2562C59.0362 30.7219 59.0362 30.1591 58.8914 29.6248L58.4429 31.1438C58.1867 31.8172 57.999 32.5143 57.88 33.2248C56.9895 35.2333 55.6657 37.02 54.0029 38.4562C53.3848 39.1876 52.6533 38.9067 52.6533 37.9495C52.6533 36.1495 52.3172 34.3495 52.1467 32.3248C52.2095 31.4724 52.7248 30.72 53.4962 30.3562C55.0962 29.2133 56.36 27.6581 57.1495 25.8562C57.5809 24.1962 57.5809 22.4533 57.1495 20.7934C56.5886 21.9743 56.701 23.0438 56.2505 23.8867C55.321 25.4372 54.1219 26.8086 52.7095 27.9372C52.3771 28.3476 51.7762 28.4114 51.3657 28.0791C51.1829 27.9305 51.06 27.72 51.0229 27.4867C50.4495 25.6819 49.6772 23.9457 48.7181 22.3124C48.4114 21.8076 48.5714 21.1505 49.0762 20.8429C49.1057 20.8248 49.1362 20.8086 49.1686 20.7934C49.8505 20.2419 50.4886 19.641 51.0791 18.9934C52.3238 17.9629 52.4962 16.1191 51.4676 14.8743C51.2476 14.6096 50.9848 14.3848 50.6867 14.2115C48.7743 12.781 46.5638 11.8 44.2219 11.3429C42.521 10.8791 40.7524 10.7086 38.9951 10.8372C40.3429 12.1305 41.6924 13.3677 43.0991 14.8867C42.84 14.2457 42.9457 13.5143 43.3791 12.9743C43.9162 12.7362 44.5286 12.7362 45.0648 12.9743C46.4276 13.1353 47.7667 13.4562 49.0562 13.9305C49.8952 14.3096 50.6286 14.8886 51.1914 15.6181C51.7257 16.2934 51.7257 17.2486 51.1914 17.9248C50.4648 19.0229 49.3991 19.8534 48.1572 20.2867C47.2752 20.3286 46.4324 19.9276 45.9086 19.2181C46.1714 19.7695 46.1714 20.4105 45.9086 20.9619C45.4553 21.3486 44.9143 21.6191 44.3343 21.7495C42.1972 22.3686 39.9505 22.7619 37.7573 23.1562C35.5665 23.5495 35.2279 23.1562 34.8915 21.0181C34.3287 17.7553 33.3734 14.6057 32.5864 11.3991C32.4592 10.9353 32.2888 10.4829 32.0796 10.0496C31.519 8.75527 31.2365 8.69908 30.1691 9.65527C26.7729 12.6648 24.0019 16.3162 22.0181 20.3991C21.0068 22.5372 20.6704 22.6495 18.5895 21.5248L17.9728 21.1867C16.0494 20.3905 15.1372 18.1857 15.9329 16.2629C16.1313 15.7876 16.4223 15.3572 16.7911 14.9991C18.5765 12.7848 20.927 11.0943 23.5922 10.1057H22.7491L21.175 10.6676C20.0515 11.2305 18.9841 11.7372 17.8024 12.1867L16.5669 12.9181C14.8956 13.8143 13.4099 15.0162 12.183 16.4619C10.4083 17.7724 9.96413 20.24 11.1696 22.0867C11.4973 22.501 11.4282 23.1019 11.0142 23.4305C10.9108 23.5124 10.7921 23.5724 10.6649 23.6057C8.81479 24.3686 7.17813 25.5648 5.88641 27.0933C5.98346 27.4429 5.98346 27.8124 5.88641 28.1619ZM47.7067 46.8943C46.1781 49.7676 44.0952 52.3105 41.581 54.3752C41.4057 54.6781 41.0867 54.8705 40.7372 54.8819C40.2305 54.8819 40.7372 54.2067 40.4553 53.8686C40.1743 53.5314 40.4553 51.619 40.4553 50.381C40.1591 49.5962 40.5562 48.72 41.341 48.4248C41.4191 48.3952 41.4981 48.3724 41.581 48.3562C43.5533 47.8029 45.4429 46.9895 47.2 45.9371C47.2 45.9381 47.9305 45.3752 48.2695 45.9381C48.6057 46.5 47.8753 46.6124 47.7067 46.9505V46.8943ZM50.0676 34.6876C50.0676 36.5438 50.0676 38.4562 49.7295 40.3124C49.6362 40.9905 49.2162 41.5791 48.6057 41.8876C46.1086 43.159 43.5143 44.2305 40.8495 45.0933C40.1181 45.0933 39.7819 45.0933 39.6678 44.4191C39.6678 42.4505 39.1632 40.481 38.8247 38.7933C38.663 38.1943 39.0144 37.5752 39.6139 37.4114C39.6506 37.4019 39.6873 37.3933 39.7261 37.3876C42.9257 36.68 46.0248 35.5648 48.9448 34.0686C49.8438 33.2248 50.18 33.6743 50.0676 34.6876ZM37.8694 25.6867C40.9057 25.2333 43.8572 24.3429 46.6391 23.0438C46.9933 22.7924 47.4848 22.8772 47.7343 23.2324C47.8143 23.3429 47.8619 23.4714 47.8752 23.6057C48.4381 25.4619 49.001 27.3181 49.5048 29.2305C49.5895 29.66 49.3524 30.0876 48.9448 30.2438C45.7362 31.6543 42.4067 32.7657 38.9951 33.5619C38.4711 33.6248 37.9945 33.2505 37.9319 32.7267C37.9298 32.7048 37.9277 32.6838 37.9255 32.6619C37.5892 30.7495 37.2528 28.8372 36.8581 27.0372C36.6899 26.0248 37.1967 25.8562 37.8694 25.6867ZM35.1157 39.0191C35.6225 41.1562 36.1832 43.2371 36.6899 45.3191C36.6899 45.9933 36.2953 46.1067 35.7907 46.2191C33.449 46.6857 31.0855 47.0238 28.7072 47.2314C27.7929 47.3048 26.9324 46.7838 26.5723 45.9381C25.5114 44.1686 24.6618 42.28 24.0429 40.3124C23.7604 39.5248 24.0429 39.4124 24.7739 39.3562C27.8144 39.2124 30.8397 38.8362 33.8241 38.2314C34.2122 37.9762 34.7363 38.0867 34.9907 38.4762C35.105 38.6533 35.1503 38.8667 35.1157 39.0753V39.0191ZM24.7178 21.7495C26.3653 17.9438 28.3794 14.3086 30.7319 10.8934C30.8375 10.5562 31.1675 10.3429 31.519 10.3867C31.9114 10.3867 31.8554 10.78 31.7994 11.1181C31.7216 14.5029 31.9093 17.8886 32.3621 21.2429C32.3621 23.4934 32.6424 23.4934 29.7206 23.4372L25.3906 22.9867C24.7178 22.8743 24.3793 22.481 24.7178 21.7495ZM23.1997 27.3743C23.2062 26.7848 23.6914 26.3114 24.2801 26.3191C24.4311 26.321 24.5798 26.3543 24.7178 26.4181H30.3373C32.7546 26.4181 32.7546 26.4181 33.1492 28.6686C33.3325 30.2591 33.615 31.8372 33.9923 33.3933C34.2122 33.8038 34.0592 34.3153 33.6494 34.5362C33.4964 34.6191 33.3217 34.6514 33.1492 34.6314C30.0613 34.881 26.9604 34.881 23.8747 34.6314C23.3464 34.6629 22.8935 34.2619 22.8613 33.7343C22.8591 33.6962 22.8591 33.6572 22.8613 33.6191C22.7189 31.5524 22.8137 29.4762 23.1437 27.4305L23.1997 27.3743ZM21.5135 43.0686C21.7766 44.1019 22.2984 45.0514 23.0315 45.8248C23.368 46.2191 23.6483 46.6686 23.0315 46.8372C19.7971 46.7314 16.7653 45.2343 14.7124 42.7314C14.3458 42.1429 14.169 41.4552 14.2056 40.7629C14.2056 38.9619 14.2056 38.9619 16.0601 38.9619C18.6887 38.6619 21.0779 40.5057 21.4574 43.1248L21.5135 43.0686ZM12.7436 24.5619C12.8774 24.1153 13.3475 23.861 13.7938 23.9934C13.88 24.02 13.9619 24.06 14.0375 24.1124C15.5728 24.8467 17.1987 25.3762 18.872 25.6867C19.6591 25.6867 19.9955 26.1372 19.7712 26.981C19.3033 28.8172 19.1308 30.7162 19.2644 32.6057C19.2644 33.3372 19.2644 33.9 18.2531 33.6191C16.1075 33.0876 14.1582 31.9553 12.6315 30.3562C12.0083 29.7133 11.6999 28.8286 11.7884 27.9372C11.7388 26.7391 12.0752 25.5562 12.7436 24.5619Z" fill="#E99517"/>
<rect x="0.3" y="0.3" width="63.4" height="63.4" rx="11.7" stroke="black" stroke-width="0.6"/>
</svg>
