<svg width="655" height="655" xmlns="http://www.w3.org/2000/svg" xmlns:xlink="http://www.w3.org/1999/xlink" xml:space="preserve" overflow="hidden"><defs><clipPath id="clip0"><rect x="592" y="1226" width="655" height="655"/></clipPath></defs><g clip-path="url(#clip0)" transform="translate(-592 -1226)"><path d="M594.5 1295.59C594.5 1258.54 624.535 1228.5 661.586 1228.5L1177.41 1228.5C1214.46 1228.5 1244.5 1258.54 1244.5 1295.59L1244.5 1811.41C1244.5 1848.46 1214.46 1878.5 1177.41 1878.5L661.586 1878.5C624.535 1878.5 594.5 1848.46 594.5 1811.41Z" stroke="#595959" stroke-width="4.58333" stroke-miterlimit="8" fill="#FFFFFF" fill-rule="evenodd"/><path d="M644.307 1514.2C627.937 1538.27 633.711 1571 657.304 1588.03 660.7 1590.13 663.372 1593.22 664.956 1596.89 680.693 1604.37 696.859 1610.88 713.365 1616.38 725.161 1619.93 726.338 1626.42 718.685 1635.28 711.01 1644.14 711.599 1641.19 708.632 1644.73 687.191 1664.76 686.013 1698.39 706.029 1719.87 708.429 1722.44 711.078 1724.78 713.953 1726.83 730.12 1737.73 748.436 1744.98 767.659 1748.1 793.607 1753.81 820.211 1756 846.747 1754.59 865.562 1751.87 884.671 1756.76 899.864 1768.18 905.638 1773.11 912.521 1776.56 919.925 1778.22 918.385 1772.27 915.102 1766.92 910.483 1762.86 906.362 1756.37 906.951 1751.05 915.215 1748.69 932.876 1743.9 950.808 1740.15 968.921 1737.46 978 1736.44 986.174 1742.97 987.193 1752.04 987.216 1752.1 987.216 1752.17 987.216 1752.23 990.77 1764.04 994.303 1775.86 999.012 1787.08 1003.74 1798.3 1008.48 1801.25 1020.86 1794.17 1068.09 1768.81 1104.09 1726.66 1121.78 1676.04 1123.31 1670.05 1126.37 1664.56 1130.63 1660.09 1151.14 1642.93 1169.21 1623.06 1184.36 1601.03 1186.78 1598.28 1188.95 1595.32 1190.83 1592.17L1200.86 1562.04 1200.86 1546.69C1202.38 1541.08 1202.38 1535.17 1200.86 1529.56L1196.15 1545.51C1193.46 1552.58 1191.49 1559.9 1190.24 1567.36 1180.89 1588.45 1166.99 1607.21 1149.53 1622.29 1143.04 1629.97 1135.36 1627.02 1135.36 1616.97 1135.36 1598.07 1131.83 1579.17 1130.04 1557.91 1130.7 1548.96 1136.11 1541.06 1144.21 1537.24 1161.01 1525.24 1174.28 1508.91 1182.57 1489.99 1187.1 1472.56 1187.1 1454.26 1182.57 1436.83 1176.68 1449.23 1177.86 1460.46 1173.13 1469.31 1163.37 1485.59 1150.78 1499.99 1135.95 1511.84 1132.46 1516.15 1126.15 1516.82 1121.84 1513.33 1119.92 1511.77 1118.63 1509.56 1118.24 1507.11 1112.22 1488.16 1104.11 1469.93 1094.04 1452.78 1090.82 1447.48 1092.5 1440.58 1097.8 1437.35 1098.11 1437.16 1098.43 1436.99 1098.77 1436.83 1105.93 1431.04 1112.63 1424.73 1118.83 1417.93 1131.9 1407.11 1133.71 1387.75 1122.91 1374.68 1120.6 1371.9 1117.84 1369.54 1114.71 1367.72 1094.63 1352.7 1071.42 1342.4 1046.83 1337.6 1028.97 1332.73 1010.4 1330.94 991.948 1332.29 1006.1 1345.87 1020.27 1358.86 1035.04 1374.81 1032.32 1368.08 1033.43 1360.4 1037.98 1354.73 1043.62 1352.23 1050.05 1352.23 1055.68 1354.73 1069.99 1356.42 1084.05 1359.79 1097.59 1364.77 1106.4 1368.75 1114.1 1374.83 1120.01 1382.49 1125.62 1389.58 1125.62 1399.61 1120.01 1406.71 1112.38 1418.24 1101.19 1426.96 1088.15 1431.51 1078.89 1431.95 1070.04 1427.74 1064.54 1420.29 1067.3 1426.08 1067.3 1432.81 1064.54 1438.6 1059.78 1442.66 1054.1 1445.5 1048.01 1446.87 1025.57 1453.37 1001.98 1457.5 978.951 1461.64 955.948 1465.77 952.393 1461.64 948.861 1439.19 942.951 1404.93 932.921 1371.86 924.657 1338.19 923.321 1333.32 921.532 1328.57 919.336 1324.02 913.449 1310.43 910.483 1309.84 899.275 1319.88 863.615 1351.48 834.52 1389.82 813.69 1432.69 803.071 1455.14 799.539 1456.32 777.69 1444.51L771.214 1440.96C751.018 1432.6 741.44 1409.45 749.795 1389.26 751.878 1384.27 754.934 1379.75 758.806 1375.99 777.553 1352.74 802.233 1334.99 830.218 1324.61L830.218 1324.61 821.365 1324.61 804.837 1330.51C793.041 1336.42 781.833 1341.74 769.425 1346.46L756.452 1354.14C738.904 1363.55 723.304 1376.17 710.421 1391.35 691.787 1405.11 687.123 1431.02 699.78 1450.41 703.221 1454.76 702.496 1461.07 698.149 1464.52 697.063 1465.38 695.817 1466.01 694.481 1466.36 675.055 1474.37 657.87 1486.93 644.307 1502.98 645.326 1506.65 645.326 1510.53 644.307 1514.2ZM1083.42 1710.89C1067.37 1741.06 1045.5 1767.76 1019.1 1789.44 1017.26 1792.62 1013.91 1794.64 1010.24 1794.76 1004.92 1794.76 1010.24 1787.67 1007.28 1784.12 1004.33 1780.58 1007.28 1760.5 1007.28 1747.5 1004.17 1739.26 1008.34 1730.06 1016.58 1726.96 1017.4 1726.65 1018.23 1726.41 1019.1 1726.24 1039.81 1720.43 1059.65 1711.89 1078.1 1700.84 1078.1 1700.85 1085.77 1694.94 1089.33 1700.85 1092.86 1706.75 1085.19 1707.93 1083.42 1711.48ZM1108.21 1582.72C1108.21 1602.21 1108.21 1622.29 1104.66 1641.78 1103.68 1648.9 1099.27 1655.08 1092.86 1658.32 1066.64 1671.67 1039.4 1682.92 1011.42 1691.98 1003.74 1691.98 1000.21 1691.98 999.012 1684.9 999.012 1664.23 993.714 1643.55 990.159 1625.83 988.461 1619.54 992.151 1613.04 998.446 1611.32 998.831 1611.22 999.216 1611.13 999.624 1611.07 1033.22 1603.64 1065.76 1591.93 1096.42 1576.22 1105.86 1567.36 1109.39 1572.08 1108.21 1582.72ZM980.129 1488.21C1012.01 1483.45 1043 1474.1 1072.21 1460.46 1075.93 1457.82 1081.09 1458.71 1083.71 1462.44 1084.55 1463.6 1085.05 1464.95 1085.19 1466.36 1091.1 1485.85 1097.01 1505.34 1102.3 1525.42 1103.19 1529.93 1100.7 1534.42 1096.42 1536.06 1062.73 1550.87 1027.77 1562.54 991.948 1570.9 986.446 1571.56 981.442 1567.63 980.785 1562.13 980.763 1561.9 980.741 1561.68 980.718 1561.45 977.186 1541.37 973.654 1521.29 969.51 1502.39 967.744 1491.76 973.065 1489.99 980.129 1488.21ZM951.215 1628.2C956.536 1650.64 962.423 1672.49 967.744 1694.35 967.744 1701.43 963.601 1702.62 958.302 1703.8 933.714 1708.7 908.898 1712.25 883.925 1714.43 874.325 1715.2 865.29 1709.73 861.509 1700.85 850.369 1682.27 841.449 1662.44 834.95 1641.78 831.984 1633.51 834.95 1632.33 842.626 1631.74 874.551 1630.23 906.317 1626.28 937.653 1619.93 941.728 1617.25 947.231 1618.41 949.902 1622.5 951.102 1624.36 951.578 1626.6 951.215 1628.79ZM842.037 1446.87C859.335 1406.91 880.483 1368.74 905.185 1332.88 906.294 1329.34 909.759 1327.1 913.449 1327.56 917.57 1327.56 916.982 1331.69 916.393 1335.24 915.577 1370.78 917.547 1406.33 922.302 1441.55 922.302 1465.18 925.245 1465.18 894.566 1464.59L849.101 1459.86C842.037 1458.68 838.482 1454.55 842.037 1446.87ZM826.097 1505.93C826.165 1499.74 831.26 1494.77 837.441 1494.85 839.026 1494.87 840.588 1495.22 842.037 1495.89L901.041 1495.89C926.423 1495.89 926.423 1495.89 930.566 1519.52 932.491 1536.22 935.457 1552.79 939.419 1569.13 941.728 1573.44 940.121 1578.81 935.819 1581.13 934.212 1582 932.378 1582.34 930.566 1582.13 898.143 1584.75 865.584 1584.75 833.184 1582.13 827.637 1582.46 822.882 1578.25 822.543 1572.71 822.52 1572.31 822.52 1571.9 822.543 1571.5 821.048 1549.8 822.044 1528 825.509 1506.52ZM808.392 1670.72C811.154 1681.57 816.633 1691.54 824.331 1699.66 827.864 1703.8 830.807 1708.52 824.331 1710.29 790.369 1709.18 758.535 1693.46 736.98 1667.18 733.131 1661 731.274 1653.78 731.659 1646.51 731.659 1627.6 731.659 1627.6 751.131 1627.6 778.731 1624.45 803.818 1643.81 807.803 1671.31ZM716.308 1476.4C717.712 1471.71 722.648 1469.04 727.335 1470.43 728.24 1470.71 729.1 1471.13 729.893 1471.68 746.014 1479.39 763.086 1484.95 780.656 1488.21 788.92 1488.21 792.452 1492.94 790.097 1501.8 785.184 1521.08 783.373 1541.02 784.776 1560.86 784.776 1568.54 784.776 1574.45 774.157 1571.5 751.629 1565.92 731.161 1554.03 715.13 1537.24 708.587 1530.49 705.349 1521.2 706.278 1511.84 705.757 1499.26 709.289 1486.84 716.308 1476.4Z" fill="#262626" fill-rule="evenodd"/></g></svg>