<svg width="64" height="64" viewBox="0 0 64 64" fill="none" xmlns="http://www.w3.org/2000/svg">
<rect x="45.3766" y="41.5825" width="19.2664" height="5.36569" rx="1.5" transform="rotate(45 45.3766 41.5825)" fill="#F2994A"/>
<ellipse cx="29.0066" cy="29.0066" rx="24.0066" ry="24.0066" fill="#2F80ED"/>
<circle cx="29.0066" cy="29.0066" r="19.0822" fill="#56CCF2"/>
<path d="M29.3155 15.4283C29.3382 14.4306 28.5452 13.5924 27.5517 13.6867C24.4416 13.982 21.479 15.2193 19.0715 17.2546C16.6639 19.29 14.951 22.0054 14.1423 25.023C13.884 25.987 14.5786 26.9083 15.5661 27.052C16.5537 27.1956 17.4573 26.5047 17.7503 25.5507C18.409 23.4052 19.6716 21.4796 21.4047 20.0145C23.1377 18.5494 25.2466 17.6247 27.4718 17.3322C28.4612 17.2021 29.2928 16.426 29.3155 15.4283Z" fill="#F2F2F2"/>
</svg>
