<svg width="64" height="64" viewBox="0 0 64 64" fill="none" xmlns="http://www.w3.org/2000/svg">
<path fill-rule="evenodd" clip-rule="evenodd" d="M25.4635 8.06664C25.5281 7.25557 26.107 6.57182 26.9074 6.42527C30.0062 5.85795 33.1848 5.85823 36.2836 6.42621C37.0838 6.57294 37.6624 7.25661 37.7271 8.06758L38.0751 12.4363C38.1337 13.1719 38.6213 13.7973 39.2991 14.089C39.9955 14.3887 40.6787 14.7307 41.3449 15.1153C42.0113 15.5 42.6494 15.9209 43.2575 16.3744C43.8489 16.8157 44.6344 16.9254 45.3008 16.6082L49.256 14.7264C49.9908 14.3767 50.8725 14.5362 51.3995 15.1561C53.4402 17.5565 55.0292 20.3097 56.0865 23.2777C56.3595 24.0439 56.0567 24.8869 55.3867 25.3483L51.7801 27.8321C51.1723 28.2506 50.8746 28.9857 50.9609 29.7185C51.0495 30.4713 51.0948 31.2338 51.0948 32.0028C51.0948 32.7722 51.0495 33.5351 50.9607 34.2883C50.8744 35.0212 51.1722 35.7562 51.7799 36.1748L55.3847 38.6573C56.0548 39.1188 56.3576 39.962 56.0844 40.7284C55.0263 43.6962 53.4366 46.4492 51.395 48.8492C50.8679 49.4688 49.9864 49.6281 49.2518 49.2786L45.2997 47.3982C44.6334 47.0811 43.848 47.1907 43.2564 47.6319C42.6488 48.0852 42.0109 48.5057 41.3449 48.8903C40.6787 49.2749 39.9956 49.6169 39.2992 49.9166C38.6214 50.2083 38.1338 50.8337 38.0752 51.5693L37.7276 55.9323C37.663 56.7433 37.0843 57.4269 36.2842 57.5737C33.185 58.1418 30.006 58.1421 26.9067 57.5746C26.1064 57.428 25.5276 56.7443 25.4629 55.9332L25.1153 51.5696C25.0568 50.834 24.5691 50.2085 23.8912 49.917C23.1945 49.6172 22.5112 49.275 21.8449 48.8903C21.1788 48.5058 20.5411 48.0853 19.9335 47.6321C19.342 47.1909 18.5566 47.0814 17.8903 47.3984L13.9352 49.2802C13.2007 49.6298 12.3193 49.4705 11.7921 48.851C9.75051 46.4514 8.16064 43.6987 7.10226 40.7312C6.82897 39.9649 7.13172 39.1215 7.80188 38.66L11.4098 36.1753C12.0176 35.7567 12.3153 35.0216 12.229 34.2888C12.1402 33.5354 12.0949 32.7723 12.0949 32.0028C12.0949 31.2337 12.1401 30.4709 12.2288 29.718C12.3152 28.9851 12.0174 28.2501 11.4096 27.8316L7.79981 25.3456C7.12985 24.8841 6.827 24.0411 7.10011 23.2748C8.15773 20.3072 9.74675 17.5543 11.7876 15.1543C12.3147 14.5346 13.1963 14.3752 13.931 14.7247L17.8892 16.6081C18.5555 16.9251 19.341 16.8155 19.9325 16.3743C20.5404 15.9207 21.1785 15.5 21.8449 15.1153C22.5112 14.7306 23.1945 14.3884 23.8913 14.0886C24.5692 13.797 25.0569 13.1715 25.1154 12.4359L25.4635 8.06664ZM36.4695 23.5594C33.4529 21.8178 29.7361 21.8178 26.7195 23.5594C23.7029 25.3011 21.8445 28.5198 21.8445 32.0032C21.8445 35.4865 23.7029 38.7053 26.7195 40.4469C29.7361 42.1886 33.4529 42.1886 36.4695 40.4469C39.4861 38.7053 41.3445 35.4865 41.3445 32.0032C41.3445 28.5198 39.4861 25.3011 36.4695 23.5594Z" fill="#2F80ED"/>
</svg>
